<mxfile host="app.diagrams.net" modified="2024-02-15T10:57:09.549Z" agent="Mozilla/5.0 (Windows NT 10.0; Win64; x64) AppleWebKit/537.36 (KHTML, like Gecko) Chrome/121.0.0.0 Safari/537.36" etag="V2uuJHmze_eBrFdJ2iYz" version="23.1.2" type="google">
  <diagram id="R2lEEEUBdFMjLlhIrx00" name="Page-1">
    <mxGraphModel dx="3783" dy="2660" grid="1" gridSize="10" guides="1" tooltips="1" connect="1" arrows="1" fold="1" page="1" pageScale="1" pageWidth="850" pageHeight="1100" math="0" shadow="0" extFonts="Permanent Marker^https://fonts.googleapis.com/css?family=Permanent+Marker">
      <root>
        <mxCell id="0" />
        <mxCell id="1" parent="0" />
        <mxCell id="OuPkgNERS_z0lnA8bcDj-1" value="Interview" style="rounded=0;whiteSpace=wrap;html=1;strokeWidth=3;fontSize=14;fontStyle=1" parent="1" vertex="1">
          <mxGeometry x="230" y="552" width="120" height="60" as="geometry" />
        </mxCell>
        <mxCell id="OuPkgNERS_z0lnA8bcDj-2" value="interview_ID" style="ellipse;whiteSpace=wrap;html=1;strokeWidth=3;fontSize=14;fontStyle=1" parent="1" vertex="1">
          <mxGeometry x="-35" y="662" width="120" height="80" as="geometry" />
        </mxCell>
        <mxCell id="OuPkgNERS_z0lnA8bcDj-3" value="Date" style="ellipse;whiteSpace=wrap;html=1;strokeWidth=3;fontSize=14;fontStyle=1" parent="1" vertex="1">
          <mxGeometry x="355" y="702" width="120" height="80" as="geometry" />
        </mxCell>
        <mxCell id="OuPkgNERS_z0lnA8bcDj-4" value="Time" style="ellipse;whiteSpace=wrap;html=1;strokeWidth=3;fontSize=14;fontStyle=1" parent="1" vertex="1">
          <mxGeometry x="490" y="472" width="120" height="80" as="geometry" />
        </mxCell>
        <mxCell id="OuPkgNERS_z0lnA8bcDj-7" value="Interviewer" style="rounded=0;whiteSpace=wrap;html=1;strokeWidth=3;fontSize=14;fontStyle=1" parent="1" vertex="1">
          <mxGeometry x="210" y="974" width="120" height="60" as="geometry" />
        </mxCell>
        <mxCell id="OuPkgNERS_z0lnA8bcDj-8" value="interviewer_ID" style="ellipse;whiteSpace=wrap;html=1;strokeWidth=3;fontSize=14;fontStyle=1" parent="1" vertex="1">
          <mxGeometry x="25" y="984" width="120" height="80" as="geometry" />
        </mxCell>
        <mxCell id="OuPkgNERS_z0lnA8bcDj-9" value="Name" style="ellipse;whiteSpace=wrap;html=1;strokeWidth=3;fontSize=14;fontStyle=1" parent="1" vertex="1">
          <mxGeometry x="170" y="1104" width="120" height="80" as="geometry" />
        </mxCell>
        <mxCell id="OuPkgNERS_z0lnA8bcDj-10" value="Role" style="ellipse;whiteSpace=wrap;html=1;strokeWidth=3;fontSize=14;fontStyle=1" parent="1" vertex="1">
          <mxGeometry x="355" y="1054" width="120" height="80" as="geometry" />
        </mxCell>
        <mxCell id="OuPkgNERS_z0lnA8bcDj-11" value="Candidate" style="rounded=0;whiteSpace=wrap;html=1;strokeWidth=3;fontSize=14;fontStyle=1" parent="1" vertex="1">
          <mxGeometry x="1107.5" y="550" width="120" height="60" as="geometry" />
        </mxCell>
        <mxCell id="OuPkgNERS_z0lnA8bcDj-12" value="Name" style="ellipse;whiteSpace=wrap;html=1;strokeWidth=3;fontSize=14;fontStyle=1" parent="1" vertex="1">
          <mxGeometry x="1132.5" y="690" width="120" height="80" as="geometry" />
        </mxCell>
        <mxCell id="OuPkgNERS_z0lnA8bcDj-13" value="applied_date" style="ellipse;whiteSpace=wrap;html=1;strokeWidth=3;fontSize=14;fontStyle=1" parent="1" vertex="1">
          <mxGeometry x="1147.5" y="390" width="120" height="80" as="geometry" />
        </mxCell>
        <mxCell id="OuPkgNERS_z0lnA8bcDj-14" value="status" style="ellipse;whiteSpace=wrap;html=1;strokeWidth=3;fontSize=14;fontStyle=1" parent="1" vertex="1">
          <mxGeometry x="1307.5" y="590" width="120" height="80" as="geometry" />
        </mxCell>
        <mxCell id="OuPkgNERS_z0lnA8bcDj-15" value="Candidate_ID" style="ellipse;whiteSpace=wrap;html=1;strokeWidth=3;fontSize=14;fontStyle=1" parent="1" vertex="1">
          <mxGeometry x="977.5" y="690" width="120" height="80" as="geometry" />
        </mxCell>
        <mxCell id="-2zlEx04WW2Jvss6zfBr-19" style="edgeStyle=orthogonalEdgeStyle;rounded=0;orthogonalLoop=1;jettySize=auto;html=1;exitX=1;exitY=0.5;exitDx=0;exitDy=0;entryX=0;entryY=0.5;entryDx=0;entryDy=0;endArrow=none;endFill=0;strokeWidth=3;fontSize=14;fontStyle=1" edge="1" parent="1" source="OuPkgNERS_z0lnA8bcDj-16" target="OuPkgNERS_z0lnA8bcDj-217">
          <mxGeometry relative="1" as="geometry" />
        </mxCell>
        <mxCell id="OuPkgNERS_z0lnA8bcDj-16" value="Vacancy" style="rounded=0;whiteSpace=wrap;html=1;strokeWidth=3;fontSize=14;fontStyle=1" parent="1" vertex="1">
          <mxGeometry x="240" y="-25" width="120" height="60" as="geometry" />
        </mxCell>
        <mxCell id="OuPkgNERS_z0lnA8bcDj-17" value="Job_role" style="ellipse;whiteSpace=wrap;html=1;strokeWidth=3;fontSize=14;fontStyle=1" parent="1" vertex="1">
          <mxGeometry x="60" y="-80" width="120" height="80" as="geometry" />
        </mxCell>
        <mxCell id="OuPkgNERS_z0lnA8bcDj-18" value="Vacancy_ID" style="ellipse;whiteSpace=wrap;html=1;strokeWidth=3;fontSize=14;fontStyle=1" parent="1" vertex="1">
          <mxGeometry x="550" y="-130" width="120" height="80" as="geometry" />
        </mxCell>
        <mxCell id="OuPkgNERS_z0lnA8bcDj-19" value="No_of_interviews" style="ellipse;whiteSpace=wrap;html=1;strokeWidth=3;fontSize=14;fontStyle=1" parent="1" vertex="1">
          <mxGeometry x="200" y="-170" width="120" height="80" as="geometry" />
        </mxCell>
        <mxCell id="OuPkgNERS_z0lnA8bcDj-20" value="open_date" style="ellipse;whiteSpace=wrap;html=1;strokeWidth=3;fontSize=14;fontStyle=1" parent="1" vertex="1">
          <mxGeometry x="110" y="75" width="120" height="80" as="geometry" />
        </mxCell>
        <mxCell id="OuPkgNERS_z0lnA8bcDj-21" value="close_date" style="ellipse;whiteSpace=wrap;html=1;strokeWidth=3;fontSize=14;fontStyle=1" parent="1" vertex="1">
          <mxGeometry x="387.5" y="70" width="120" height="80" as="geometry" />
        </mxCell>
        <mxCell id="OuPkgNERS_z0lnA8bcDj-22" value="Project" style="rounded=0;whiteSpace=wrap;html=1;strokeWidth=3;fontSize=14;fontStyle=1" parent="1" vertex="1">
          <mxGeometry x="267.5" y="-585" width="120" height="60" as="geometry" />
        </mxCell>
        <mxCell id="OuPkgNERS_z0lnA8bcDj-23" value="Project_description" style="ellipse;whiteSpace=wrap;html=1;strokeWidth=3;fontSize=14;fontStyle=1" parent="1" vertex="1">
          <mxGeometry x="60" y="-670" width="120" height="80" as="geometry" />
        </mxCell>
        <mxCell id="OuPkgNERS_z0lnA8bcDj-24" value="Project_ID" style="ellipse;whiteSpace=wrap;html=1;strokeWidth=3;fontSize=14;fontStyle=1" parent="1" vertex="1">
          <mxGeometry x="457.5" y="-705" width="120" height="80" as="geometry" />
        </mxCell>
        <mxCell id="OuPkgNERS_z0lnA8bcDj-25" value="Project_Name" style="ellipse;whiteSpace=wrap;html=1;fillStyle=solid;strokeWidth=3;fontSize=14;fontStyle=1" parent="1" vertex="1">
          <mxGeometry x="287.5" y="-730" width="120" height="80" as="geometry" />
        </mxCell>
        <mxCell id="OuPkgNERS_z0lnA8bcDj-26" value="Start_date" style="ellipse;whiteSpace=wrap;html=1;strokeWidth=3;fontSize=14;fontStyle=1" parent="1" vertex="1">
          <mxGeometry x="-10" y="-550" width="120" height="80" as="geometry" />
        </mxCell>
        <mxCell id="OuPkgNERS_z0lnA8bcDj-27" value="End_date" style="ellipse;whiteSpace=wrap;html=1;strokeWidth=3;fontSize=14;fontStyle=1" parent="1" vertex="1">
          <mxGeometry x="530" y="-565" width="120" height="80" as="geometry" />
        </mxCell>
        <mxCell id="OuPkgNERS_z0lnA8bcDj-29" value="Rating" style="ellipse;whiteSpace=wrap;html=1;strokeWidth=3;fontSize=14;fontStyle=1" parent="1" vertex="1">
          <mxGeometry x="-375" y="392" width="120" height="80" as="geometry" />
        </mxCell>
        <mxCell id="OuPkgNERS_z0lnA8bcDj-31" value="Feedback_comment" style="ellipse;whiteSpace=wrap;html=1;strokeWidth=3;fontSize=14;fontStyle=1" parent="1" vertex="1">
          <mxGeometry x="-465" y="610" width="155" height="80" as="geometry" />
        </mxCell>
        <mxCell id="OuPkgNERS_z0lnA8bcDj-32" value="Verdict" style="ellipse;whiteSpace=wrap;html=1;strokeWidth=3;fontSize=14;fontStyle=1" parent="1" vertex="1">
          <mxGeometry x="-605" y="457" width="120" height="80" as="geometry" />
        </mxCell>
        <mxCell id="OuPkgNERS_z0lnA8bcDj-33" value="conducts" style="rhombus;whiteSpace=wrap;html=1;strokeWidth=3;fontSize=14;fontStyle=1" parent="1" vertex="1">
          <mxGeometry x="250" y="812" width="80" height="80" as="geometry" />
        </mxCell>
        <mxCell id="OuPkgNERS_z0lnA8bcDj-35" value="done for" style="rhombus;whiteSpace=wrap;html=1;strokeWidth=3;fontSize=14;fontStyle=1" parent="1" vertex="1">
          <mxGeometry x="250" y="180" width="80" height="80" as="geometry" />
        </mxCell>
        <mxCell id="OuPkgNERS_z0lnA8bcDj-36" value="has" style="rhombus;whiteSpace=wrap;html=1;strokeWidth=3;fontSize=14;fontStyle=1" parent="1" vertex="1">
          <mxGeometry x="-115" y="514" width="80" height="80" as="geometry" />
        </mxCell>
        <mxCell id="OuPkgNERS_z0lnA8bcDj-39" value="has" style="rhombus;whiteSpace=wrap;html=1;strokeWidth=3;fontSize=14;fontStyle=1" parent="1" vertex="1">
          <mxGeometry x="287.5" y="-350" width="80" height="80" as="geometry" />
        </mxCell>
        <mxCell id="OuPkgNERS_z0lnA8bcDj-40" value="has" style="rhombus;whiteSpace=wrap;html=1;strokeWidth=3;fontSize=14;fontStyle=1" parent="1" vertex="1">
          <mxGeometry x="780" y="540" width="80" height="80" as="geometry" />
        </mxCell>
        <mxCell id="OuPkgNERS_z0lnA8bcDj-41" value="" style="endArrow=none;html=1;rounded=0;entryX=0.5;entryY=1;entryDx=0;entryDy=0;exitX=0.5;exitY=0;exitDx=0;exitDy=0;strokeWidth=3;fontSize=14;fontStyle=1" parent="1" source="OuPkgNERS_z0lnA8bcDj-16" target="OuPkgNERS_z0lnA8bcDj-19" edge="1">
          <mxGeometry width="50" height="50" relative="1" as="geometry">
            <mxPoint x="290" y="20" as="sourcePoint" />
            <mxPoint x="340" y="-30" as="targetPoint" />
          </mxGeometry>
        </mxCell>
        <mxCell id="OuPkgNERS_z0lnA8bcDj-42" value="" style="endArrow=none;html=1;rounded=0;entryX=1;entryY=0.5;entryDx=0;entryDy=0;exitX=0;exitY=0.5;exitDx=0;exitDy=0;strokeWidth=3;fontSize=14;fontStyle=1" parent="1" source="OuPkgNERS_z0lnA8bcDj-16" target="OuPkgNERS_z0lnA8bcDj-17" edge="1">
          <mxGeometry width="50" height="50" relative="1" as="geometry">
            <mxPoint x="310" y="-15" as="sourcePoint" />
            <mxPoint x="270" y="-80" as="targetPoint" />
          </mxGeometry>
        </mxCell>
        <mxCell id="OuPkgNERS_z0lnA8bcDj-43" value="" style="endArrow=none;html=1;rounded=0;entryX=0.5;entryY=1;entryDx=0;entryDy=0;exitX=0;exitY=0.5;exitDx=0;exitDy=0;strokeWidth=3;fontSize=14;fontStyle=1" parent="1" source="OuPkgNERS_z0lnA8bcDj-21" target="OuPkgNERS_z0lnA8bcDj-16" edge="1">
          <mxGeometry width="50" height="50" relative="1" as="geometry">
            <mxPoint x="320" y="-5" as="sourcePoint" />
            <mxPoint x="280" y="-70" as="targetPoint" />
          </mxGeometry>
        </mxCell>
        <mxCell id="OuPkgNERS_z0lnA8bcDj-44" value="" style="endArrow=none;html=1;rounded=0;entryX=0.5;entryY=1;entryDx=0;entryDy=0;exitX=1;exitY=0;exitDx=0;exitDy=0;strokeWidth=3;fontSize=14;fontStyle=1" parent="1" source="OuPkgNERS_z0lnA8bcDj-16" target="OuPkgNERS_z0lnA8bcDj-18" edge="1">
          <mxGeometry width="50" height="50" relative="1" as="geometry">
            <mxPoint x="330" y="5" as="sourcePoint" />
            <mxPoint x="290" y="-60" as="targetPoint" />
          </mxGeometry>
        </mxCell>
        <mxCell id="OuPkgNERS_z0lnA8bcDj-46" value="" style="endArrow=none;html=1;rounded=0;entryX=1;entryY=0;entryDx=0;entryDy=0;exitX=0.177;exitY=0.986;exitDx=0;exitDy=0;exitPerimeter=0;strokeWidth=3;fontSize=14;fontStyle=1" parent="1" source="OuPkgNERS_z0lnA8bcDj-16" target="OuPkgNERS_z0lnA8bcDj-20" edge="1">
          <mxGeometry width="50" height="50" relative="1" as="geometry">
            <mxPoint x="250" y="15" as="sourcePoint" />
            <mxPoint x="190" y="-30" as="targetPoint" />
          </mxGeometry>
        </mxCell>
        <mxCell id="OuPkgNERS_z0lnA8bcDj-47" value="" style="endArrow=none;html=1;rounded=0;entryX=0.5;entryY=0;entryDx=0;entryDy=0;exitX=0.414;exitY=0.972;exitDx=0;exitDy=0;exitPerimeter=0;strokeWidth=3;fontSize=14;fontStyle=1" parent="1" source="OuPkgNERS_z0lnA8bcDj-16" target="OuPkgNERS_z0lnA8bcDj-35" edge="1">
          <mxGeometry width="50" height="50" relative="1" as="geometry">
            <mxPoint x="271" y="44" as="sourcePoint" />
            <mxPoint x="222" y="97" as="targetPoint" />
          </mxGeometry>
        </mxCell>
        <mxCell id="OuPkgNERS_z0lnA8bcDj-48" value="" style="endArrow=none;html=1;rounded=0;entryX=0.5;entryY=0;entryDx=0;entryDy=0;exitX=0.5;exitY=1;exitDx=0;exitDy=0;strokeWidth=3;fontSize=14;fontStyle=1" parent="1" source="OuPkgNERS_z0lnA8bcDj-35" target="OuPkgNERS_z0lnA8bcDj-1" edge="1">
          <mxGeometry width="50" height="50" relative="1" as="geometry">
            <mxPoint x="480" y="210" as="sourcePoint" />
            <mxPoint x="590" y="305" as="targetPoint" />
          </mxGeometry>
        </mxCell>
        <mxCell id="OuPkgNERS_z0lnA8bcDj-49" value="" style="endArrow=none;html=1;rounded=0;exitX=0.5;exitY=1;exitDx=0;exitDy=0;entryX=0.5;entryY=0;entryDx=0;entryDy=0;strokeWidth=3;fontSize=14;fontStyle=1" parent="1" source="OuPkgNERS_z0lnA8bcDj-1" target="OuPkgNERS_z0lnA8bcDj-3" edge="1">
          <mxGeometry width="50" height="50" relative="1" as="geometry">
            <mxPoint x="172.5" y="459" as="sourcePoint" />
            <mxPoint x="282.5" y="644" as="targetPoint" />
          </mxGeometry>
        </mxCell>
        <mxCell id="OuPkgNERS_z0lnA8bcDj-50" value="" style="endArrow=none;html=1;rounded=0;entryX=0.5;entryY=1;entryDx=0;entryDy=0;exitX=0.5;exitY=0;exitDx=0;exitDy=0;strokeWidth=3;fontSize=14;fontStyle=1;" parent="1" source="OuPkgNERS_z0lnA8bcDj-33" target="OuPkgNERS_z0lnA8bcDj-1" edge="1">
          <mxGeometry width="50" height="50" relative="1" as="geometry">
            <mxPoint x="172.5" y="604" as="sourcePoint" />
            <mxPoint x="302.5" y="554" as="targetPoint" />
          </mxGeometry>
        </mxCell>
        <mxCell id="OuPkgNERS_z0lnA8bcDj-51" value="" style="endArrow=none;html=1;rounded=0;entryX=0;entryY=0.5;entryDx=0;entryDy=0;exitX=1;exitY=0.5;exitDx=0;exitDy=0;strokeWidth=3;fontSize=14;fontStyle=1" parent="1" source="OuPkgNERS_z0lnA8bcDj-2" target="OuPkgNERS_z0lnA8bcDj-1" edge="1">
          <mxGeometry width="50" height="50" relative="1" as="geometry">
            <mxPoint x="162.5" y="544" as="sourcePoint" />
            <mxPoint x="282.5" y="629" as="targetPoint" />
          </mxGeometry>
        </mxCell>
        <mxCell id="OuPkgNERS_z0lnA8bcDj-52" value="" style="endArrow=none;html=1;rounded=0;exitX=0;exitY=0.5;exitDx=0;exitDy=0;entryX=1;entryY=0;entryDx=0;entryDy=0;strokeWidth=3;fontSize=14;fontStyle=1" parent="1" source="OuPkgNERS_z0lnA8bcDj-4" target="OuPkgNERS_z0lnA8bcDj-1" edge="1">
          <mxGeometry width="50" height="50" relative="1" as="geometry">
            <mxPoint x="292.5" y="604" as="sourcePoint" />
            <mxPoint x="282.5" y="664" as="targetPoint" />
          </mxGeometry>
        </mxCell>
        <mxCell id="OuPkgNERS_z0lnA8bcDj-53" value="" style="endArrow=none;html=1;rounded=0;exitX=0;exitY=0.5;exitDx=0;exitDy=0;entryX=1;entryY=0.5;entryDx=0;entryDy=0;strokeWidth=3;fontSize=14;fontStyle=1" parent="1" source="OuPkgNERS_z0lnA8bcDj-40" target="OuPkgNERS_z0lnA8bcDj-1" edge="1">
          <mxGeometry width="50" height="50" relative="1" as="geometry">
            <mxPoint x="750" y="202" as="sourcePoint" />
            <mxPoint x="680" y="232" as="targetPoint" />
          </mxGeometry>
        </mxCell>
        <mxCell id="OuPkgNERS_z0lnA8bcDj-55" value="" style="endArrow=none;html=1;rounded=0;exitX=0;exitY=0.5;exitDx=0;exitDy=0;entryX=1;entryY=0.5;entryDx=0;entryDy=0;strokeWidth=3;fontSize=14;fontStyle=1" parent="1" source="OuPkgNERS_z0lnA8bcDj-11" target="OuPkgNERS_z0lnA8bcDj-40" edge="1">
          <mxGeometry width="50" height="50" relative="1" as="geometry">
            <mxPoint x="1112.5" y="630" as="sourcePoint" />
            <mxPoint x="1037.5" y="560" as="targetPoint" />
          </mxGeometry>
        </mxCell>
        <mxCell id="OuPkgNERS_z0lnA8bcDj-56" value="" style="endArrow=none;html=1;rounded=0;exitX=0.5;exitY=0;exitDx=0;exitDy=0;entryX=0;entryY=1;entryDx=0;entryDy=0;strokeWidth=3;fontSize=14;fontStyle=1" parent="1" source="OuPkgNERS_z0lnA8bcDj-15" target="OuPkgNERS_z0lnA8bcDj-11" edge="1">
          <mxGeometry width="50" height="50" relative="1" as="geometry">
            <mxPoint x="1052.5" y="630" as="sourcePoint" />
            <mxPoint x="977.5" y="560" as="targetPoint" />
          </mxGeometry>
        </mxCell>
        <mxCell id="OuPkgNERS_z0lnA8bcDj-57" value="" style="endArrow=none;html=1;rounded=0;exitX=0.5;exitY=1;exitDx=0;exitDy=0;entryX=0.5;entryY=0;entryDx=0;entryDy=0;strokeWidth=3;fontSize=14;fontStyle=1" parent="1" source="OuPkgNERS_z0lnA8bcDj-13" target="OuPkgNERS_z0lnA8bcDj-11" edge="1">
          <mxGeometry width="50" height="50" relative="1" as="geometry">
            <mxPoint x="1047.5" y="660" as="sourcePoint" />
            <mxPoint x="1117.5" y="620" as="targetPoint" />
          </mxGeometry>
        </mxCell>
        <mxCell id="OuPkgNERS_z0lnA8bcDj-58" value="" style="endArrow=none;html=1;rounded=0;exitX=0;exitY=0.5;exitDx=0;exitDy=0;entryX=1;entryY=0.5;entryDx=0;entryDy=0;strokeWidth=3;fontSize=14;fontStyle=1" parent="1" source="OuPkgNERS_z0lnA8bcDj-14" target="OuPkgNERS_z0lnA8bcDj-11" edge="1">
          <mxGeometry width="50" height="50" relative="1" as="geometry">
            <mxPoint x="1057.5" y="670" as="sourcePoint" />
            <mxPoint x="1127.5" y="630" as="targetPoint" />
          </mxGeometry>
        </mxCell>
        <mxCell id="OuPkgNERS_z0lnA8bcDj-59" value="" style="endArrow=none;html=1;rounded=0;exitX=0.5;exitY=0;exitDx=0;exitDy=0;strokeWidth=3;fontSize=14;fontStyle=1" parent="1" source="OuPkgNERS_z0lnA8bcDj-12" edge="1">
          <mxGeometry width="50" height="50" relative="1" as="geometry">
            <mxPoint x="1067.5" y="680" as="sourcePoint" />
            <mxPoint x="1168" y="610" as="targetPoint" />
          </mxGeometry>
        </mxCell>
        <mxCell id="OuPkgNERS_z0lnA8bcDj-60" value="" style="endArrow=none;html=1;rounded=0;exitX=0.5;exitY=0;exitDx=0;exitDy=0;entryX=0.25;entryY=1;entryDx=0;entryDy=0;strokeWidth=3;fontSize=14;fontStyle=1" parent="1" source="OuPkgNERS_z0lnA8bcDj-9" target="OuPkgNERS_z0lnA8bcDj-7" edge="1">
          <mxGeometry width="50" height="50" relative="1" as="geometry">
            <mxPoint x="245" y="1104" as="sourcePoint" />
            <mxPoint x="335" y="1034" as="targetPoint" />
          </mxGeometry>
        </mxCell>
        <mxCell id="OuPkgNERS_z0lnA8bcDj-61" value="" style="endArrow=none;html=1;rounded=0;exitX=1;exitY=0.5;exitDx=0;exitDy=0;entryX=0;entryY=0.5;entryDx=0;entryDy=0;strokeWidth=3;fontSize=14;fontStyle=1" parent="1" source="OuPkgNERS_z0lnA8bcDj-8" target="OuPkgNERS_z0lnA8bcDj-7" edge="1">
          <mxGeometry width="50" height="50" relative="1" as="geometry">
            <mxPoint x="275" y="1124" as="sourcePoint" />
            <mxPoint x="345" y="1044" as="targetPoint" />
          </mxGeometry>
        </mxCell>
        <mxCell id="OuPkgNERS_z0lnA8bcDj-62" value="" style="endArrow=none;html=1;rounded=0;exitX=0.5;exitY=0;exitDx=0;exitDy=0;entryX=1;entryY=0.5;entryDx=0;entryDy=0;strokeWidth=3;fontSize=14;fontStyle=1" parent="1" source="OuPkgNERS_z0lnA8bcDj-10" target="OuPkgNERS_z0lnA8bcDj-7" edge="1">
          <mxGeometry width="50" height="50" relative="1" as="geometry">
            <mxPoint x="285" y="1134" as="sourcePoint" />
            <mxPoint x="355" y="1054" as="targetPoint" />
          </mxGeometry>
        </mxCell>
        <mxCell id="OuPkgNERS_z0lnA8bcDj-63" value="" style="endArrow=none;html=1;rounded=0;exitX=0.664;exitY=0.022;exitDx=0;exitDy=0;entryX=0.5;entryY=1;entryDx=0;entryDy=0;exitPerimeter=0;strokeWidth=3;fontSize=14;fontStyle=1" parent="1" source="OuPkgNERS_z0lnA8bcDj-7" target="OuPkgNERS_z0lnA8bcDj-33" edge="1">
          <mxGeometry width="50" height="50" relative="1" as="geometry">
            <mxPoint x="-250" y="808" as="sourcePoint" />
            <mxPoint x="-375" y="456" as="targetPoint" />
          </mxGeometry>
        </mxCell>
        <mxCell id="OuPkgNERS_z0lnA8bcDj-64" value="" style="endArrow=none;html=1;rounded=0;exitX=1;exitY=0.5;exitDx=0;exitDy=0;entryX=0;entryY=0;entryDx=0;entryDy=0;strokeWidth=3;fontSize=14;fontStyle=1" parent="1" source="OuPkgNERS_z0lnA8bcDj-36" target="OuPkgNERS_z0lnA8bcDj-1" edge="1">
          <mxGeometry width="50" height="50" relative="1" as="geometry">
            <mxPoint x="1150" y="62" as="sourcePoint" />
            <mxPoint x="430" y="552" as="targetPoint" />
          </mxGeometry>
        </mxCell>
        <mxCell id="OuPkgNERS_z0lnA8bcDj-65" value="" style="endArrow=none;html=1;rounded=0;exitX=0.5;exitY=1;exitDx=0;exitDy=0;strokeWidth=3;fontSize=14;fontStyle=1" parent="1" source="OuPkgNERS_z0lnA8bcDj-87" target="OuPkgNERS_z0lnA8bcDj-36" edge="1">
          <mxGeometry width="50" height="50" relative="1" as="geometry">
            <mxPoint x="-495" y="601" as="sourcePoint" />
            <mxPoint x="-865" y="831" as="targetPoint" />
          </mxGeometry>
        </mxCell>
        <mxCell id="OuPkgNERS_z0lnA8bcDj-66" value="" style="endArrow=none;html=1;rounded=0;exitX=0.25;exitY=1;exitDx=0;exitDy=0;entryX=0.5;entryY=0;entryDx=0;entryDy=0;strokeWidth=3;fontSize=14;fontStyle=1" parent="1" source="OuPkgNERS_z0lnA8bcDj-87" target="OuPkgNERS_z0lnA8bcDj-31" edge="1">
          <mxGeometry width="50" height="50" relative="1" as="geometry">
            <mxPoint x="-275" y="532" as="sourcePoint" />
            <mxPoint x="-495" y="662" as="targetPoint" />
          </mxGeometry>
        </mxCell>
        <mxCell id="OuPkgNERS_z0lnA8bcDj-67" value="" style="endArrow=none;html=1;rounded=0;exitX=0.5;exitY=0;exitDx=0;exitDy=0;entryX=0.5;entryY=1;entryDx=0;entryDy=0;strokeWidth=3;fontSize=14;fontStyle=1" parent="1" source="OuPkgNERS_z0lnA8bcDj-87" target="OuPkgNERS_z0lnA8bcDj-29" edge="1">
          <mxGeometry width="50" height="50" relative="1" as="geometry">
            <mxPoint x="-305" y="562" as="sourcePoint" />
            <mxPoint x="-485" y="672" as="targetPoint" />
          </mxGeometry>
        </mxCell>
        <mxCell id="OuPkgNERS_z0lnA8bcDj-68" value="" style="endArrow=none;html=1;rounded=0;exitX=0;exitY=0.5;exitDx=0;exitDy=0;entryX=1;entryY=0.5;entryDx=0;entryDy=0;strokeWidth=3;fontSize=14;fontStyle=1" parent="1" source="OuPkgNERS_z0lnA8bcDj-87" target="OuPkgNERS_z0lnA8bcDj-32" edge="1">
          <mxGeometry width="50" height="50" relative="1" as="geometry">
            <mxPoint x="-395" y="547" as="sourcePoint" />
            <mxPoint x="-475" y="682" as="targetPoint" />
          </mxGeometry>
        </mxCell>
        <mxCell id="OuPkgNERS_z0lnA8bcDj-70" value="" style="endArrow=none;html=1;rounded=0;entryX=0.5;entryY=1;entryDx=0;entryDy=0;exitX=0.75;exitY=0;exitDx=0;exitDy=0;strokeWidth=3;fontSize=14;fontStyle=1" parent="1" source="OuPkgNERS_z0lnA8bcDj-16" target="OuPkgNERS_z0lnA8bcDj-39" edge="1">
          <mxGeometry width="50" height="50" relative="1" as="geometry">
            <mxPoint x="370" y="-15" as="sourcePoint" />
            <mxPoint x="420" y="-160" as="targetPoint" />
          </mxGeometry>
        </mxCell>
        <mxCell id="OuPkgNERS_z0lnA8bcDj-71" value="" style="endArrow=none;html=1;rounded=0;entryX=0.5;entryY=1;entryDx=0;entryDy=0;exitX=0.5;exitY=0;exitDx=0;exitDy=0;strokeWidth=3;fontSize=14;fontStyle=1" parent="1" source="OuPkgNERS_z0lnA8bcDj-39" target="OuPkgNERS_z0lnA8bcDj-22" edge="1">
          <mxGeometry width="50" height="50" relative="1" as="geometry">
            <mxPoint x="260" y="-290" as="sourcePoint" />
            <mxPoint x="520" y="-440" as="targetPoint" />
          </mxGeometry>
        </mxCell>
        <mxCell id="OuPkgNERS_z0lnA8bcDj-72" value="" style="endArrow=none;html=1;rounded=0;entryX=0;entryY=0.25;entryDx=0;entryDy=0;exitX=1;exitY=0.5;exitDx=0;exitDy=0;strokeWidth=3;fontSize=14;fontStyle=1" parent="1" source="OuPkgNERS_z0lnA8bcDj-23" target="OuPkgNERS_z0lnA8bcDj-22" edge="1">
          <mxGeometry width="50" height="50" relative="1" as="geometry">
            <mxPoint x="122.5" y="-400" as="sourcePoint" />
            <mxPoint x="337.5" y="-530" as="targetPoint" />
          </mxGeometry>
        </mxCell>
        <mxCell id="OuPkgNERS_z0lnA8bcDj-73" value="" style="endArrow=none;html=1;rounded=0;entryX=1;entryY=0.5;entryDx=0;entryDy=0;exitX=0;exitY=0.5;exitDx=0;exitDy=0;strokeWidth=3;fontSize=14;fontStyle=1" parent="1" source="OuPkgNERS_z0lnA8bcDj-27" target="OuPkgNERS_z0lnA8bcDj-22" edge="1">
          <mxGeometry width="50" height="50" relative="1" as="geometry">
            <mxPoint x="132.5" y="-390" as="sourcePoint" />
            <mxPoint x="347.5" y="-520" as="targetPoint" />
          </mxGeometry>
        </mxCell>
        <mxCell id="OuPkgNERS_z0lnA8bcDj-74" value="" style="endArrow=none;html=1;rounded=0;entryX=0;entryY=0.75;entryDx=0;entryDy=0;exitX=1;exitY=0.5;exitDx=0;exitDy=0;strokeWidth=3;fontSize=14;fontStyle=1" parent="1" source="OuPkgNERS_z0lnA8bcDj-26" target="OuPkgNERS_z0lnA8bcDj-22" edge="1">
          <mxGeometry width="50" height="50" relative="1" as="geometry">
            <mxPoint x="142.5" y="-380" as="sourcePoint" />
            <mxPoint x="357.5" y="-510" as="targetPoint" />
          </mxGeometry>
        </mxCell>
        <mxCell id="OuPkgNERS_z0lnA8bcDj-75" value="" style="endArrow=none;html=1;rounded=0;entryX=1;entryY=0;entryDx=0;entryDy=0;exitX=0.5;exitY=1;exitDx=0;exitDy=0;strokeWidth=3;fontSize=14;fontStyle=1" parent="1" source="OuPkgNERS_z0lnA8bcDj-24" target="OuPkgNERS_z0lnA8bcDj-22" edge="1">
          <mxGeometry width="50" height="50" relative="1" as="geometry">
            <mxPoint x="277.5" y="-590" as="sourcePoint" />
            <mxPoint x="337.5" y="-560" as="targetPoint" />
          </mxGeometry>
        </mxCell>
        <mxCell id="OuPkgNERS_z0lnA8bcDj-76" value="" style="endArrow=none;html=1;rounded=0;entryX=0.5;entryY=0;entryDx=0;entryDy=0;exitX=0.5;exitY=1;exitDx=0;exitDy=0;strokeWidth=3;fontSize=14;fontStyle=1" parent="1" source="OuPkgNERS_z0lnA8bcDj-25" target="OuPkgNERS_z0lnA8bcDj-22" edge="1">
          <mxGeometry width="50" height="50" relative="1" as="geometry">
            <mxPoint x="287.5" y="-580" as="sourcePoint" />
            <mxPoint x="347.5" y="-550" as="targetPoint" />
          </mxGeometry>
        </mxCell>
        <mxCell id="OuPkgNERS_z0lnA8bcDj-77" value="1" style="text;html=1;align=center;verticalAlign=middle;resizable=0;points=[];autosize=1;strokeColor=none;fillColor=none;strokeWidth=3;fontSize=14;fontStyle=1" parent="1" vertex="1">
          <mxGeometry x="325" y="-515" width="30" height="30" as="geometry" />
        </mxCell>
        <mxCell id="OuPkgNERS_z0lnA8bcDj-78" value="M" style="text;html=1;align=center;verticalAlign=middle;resizable=0;points=[];autosize=1;strokeColor=none;fillColor=none;strokeWidth=3;fontSize=14;fontStyle=1" parent="1" vertex="1">
          <mxGeometry x="327.5" y="-55" width="40" height="30" as="geometry" />
        </mxCell>
        <mxCell id="OuPkgNERS_z0lnA8bcDj-79" value="1" style="text;html=1;align=center;verticalAlign=middle;resizable=0;points=[];autosize=1;strokeColor=none;fillColor=none;strokeWidth=3;fontSize=14;fontStyle=1" parent="1" vertex="1">
          <mxGeometry x="287.5" y="45" width="30" height="30" as="geometry" />
        </mxCell>
        <mxCell id="OuPkgNERS_z0lnA8bcDj-80" value="M" style="text;html=1;align=center;verticalAlign=middle;resizable=0;points=[];autosize=1;strokeColor=none;fillColor=none;strokeWidth=3;fontSize=14;fontStyle=1" parent="1" vertex="1">
          <mxGeometry x="277.5" y="494" width="40" height="30" as="geometry" />
        </mxCell>
        <mxCell id="OuPkgNERS_z0lnA8bcDj-81" value="M" style="text;html=1;align=center;verticalAlign=middle;resizable=0;points=[];autosize=1;strokeColor=none;fillColor=none;strokeWidth=3;fontSize=14;fontStyle=1" parent="1" vertex="1">
          <mxGeometry x="195" y="617" width="40" height="30" as="geometry" />
        </mxCell>
        <mxCell id="OuPkgNERS_z0lnA8bcDj-82" value="N" style="text;html=1;align=center;verticalAlign=middle;resizable=0;points=[];autosize=1;strokeColor=none;fillColor=none;strokeWidth=3;fontSize=14;fontStyle=1" parent="1" vertex="1">
          <mxGeometry x="260" y="944" width="30" height="30" as="geometry" />
        </mxCell>
        <mxCell id="OuPkgNERS_z0lnA8bcDj-83" value="1" style="text;html=1;align=center;verticalAlign=middle;resizable=0;points=[];autosize=1;strokeColor=none;fillColor=none;strokeWidth=3;fontSize=14;fontStyle=1" parent="1" vertex="1">
          <mxGeometry x="1082.5" y="538" width="30" height="30" as="geometry" />
        </mxCell>
        <mxCell id="OuPkgNERS_z0lnA8bcDj-84" value="M" style="text;html=1;align=center;verticalAlign=middle;resizable=0;points=[];autosize=1;strokeColor=none;fillColor=none;strokeWidth=3;fontSize=14;fontStyle=1" parent="1" vertex="1">
          <mxGeometry x="350" y="594" width="40" height="30" as="geometry" />
        </mxCell>
        <mxCell id="OuPkgNERS_z0lnA8bcDj-85" value="1" style="text;html=1;align=center;verticalAlign=middle;resizable=0;points=[];autosize=1;strokeColor=none;fillColor=none;strokeWidth=3;fontSize=14;fontStyle=1" parent="1" vertex="1">
          <mxGeometry x="-265" y="520" width="30" height="30" as="geometry" />
        </mxCell>
        <mxCell id="OuPkgNERS_z0lnA8bcDj-87" value="Intterview_feedback" style="shape=ext;margin=3;double=1;whiteSpace=wrap;html=1;align=center;strokeWidth=3;fontSize=14;fontStyle=1" parent="1" vertex="1">
          <mxGeometry x="-415" y="515" width="175" height="40" as="geometry" />
        </mxCell>
        <mxCell id="OuPkgNERS_z0lnA8bcDj-90" value="Interview" style="shape=table;startSize=30;container=1;collapsible=1;childLayout=tableLayout;fixedRows=1;rowLines=0;fontStyle=1;align=center;resizeLast=1;html=1;strokeWidth=3;fontSize=13;" parent="1" vertex="1">
          <mxGeometry x="2870" y="-110" width="180" height="210" as="geometry" />
        </mxCell>
        <mxCell id="OuPkgNERS_z0lnA8bcDj-91" value="" style="shape=tableRow;horizontal=0;startSize=0;swimlaneHead=0;swimlaneBody=0;fillColor=none;collapsible=0;dropTarget=0;points=[[0,0.5],[1,0.5]];portConstraint=eastwest;top=0;left=0;right=0;bottom=1;strokeWidth=3;fontSize=13;fontStyle=1" parent="OuPkgNERS_z0lnA8bcDj-90" vertex="1">
          <mxGeometry y="30" width="180" height="30" as="geometry" />
        </mxCell>
        <mxCell id="OuPkgNERS_z0lnA8bcDj-92" value="PK" style="shape=partialRectangle;connectable=0;fillColor=none;top=0;left=0;bottom=0;right=0;fontStyle=1;overflow=hidden;whiteSpace=wrap;html=1;strokeWidth=3;fontSize=13;" parent="OuPkgNERS_z0lnA8bcDj-91" vertex="1">
          <mxGeometry width="30" height="30" as="geometry">
            <mxRectangle width="30" height="30" as="alternateBounds" />
          </mxGeometry>
        </mxCell>
        <mxCell id="OuPkgNERS_z0lnA8bcDj-93" value="Interview_ID" style="shape=partialRectangle;connectable=0;fillColor=none;top=0;left=0;bottom=0;right=0;align=left;spacingLeft=6;fontStyle=5;overflow=hidden;whiteSpace=wrap;html=1;strokeWidth=3;fontSize=13;" parent="OuPkgNERS_z0lnA8bcDj-91" vertex="1">
          <mxGeometry x="30" width="150" height="30" as="geometry">
            <mxRectangle width="150" height="30" as="alternateBounds" />
          </mxGeometry>
        </mxCell>
        <mxCell id="OuPkgNERS_z0lnA8bcDj-94" value="" style="shape=tableRow;horizontal=0;startSize=0;swimlaneHead=0;swimlaneBody=0;fillColor=none;collapsible=0;dropTarget=0;points=[[0,0.5],[1,0.5]];portConstraint=eastwest;top=0;left=0;right=0;bottom=0;strokeWidth=3;fontSize=13;fontStyle=1" parent="OuPkgNERS_z0lnA8bcDj-90" vertex="1">
          <mxGeometry y="60" width="180" height="30" as="geometry" />
        </mxCell>
        <mxCell id="OuPkgNERS_z0lnA8bcDj-95" value="" style="shape=partialRectangle;connectable=0;fillColor=none;top=0;left=0;bottom=0;right=0;editable=1;overflow=hidden;whiteSpace=wrap;html=1;strokeWidth=3;fontSize=13;fontStyle=1" parent="OuPkgNERS_z0lnA8bcDj-94" vertex="1">
          <mxGeometry width="30" height="30" as="geometry">
            <mxRectangle width="30" height="30" as="alternateBounds" />
          </mxGeometry>
        </mxCell>
        <mxCell id="OuPkgNERS_z0lnA8bcDj-96" value="Time" style="shape=partialRectangle;connectable=0;fillColor=none;top=0;left=0;bottom=0;right=0;align=left;spacingLeft=6;overflow=hidden;whiteSpace=wrap;html=1;strokeWidth=3;fontSize=13;fontStyle=1" parent="OuPkgNERS_z0lnA8bcDj-94" vertex="1">
          <mxGeometry x="30" width="150" height="30" as="geometry">
            <mxRectangle width="150" height="30" as="alternateBounds" />
          </mxGeometry>
        </mxCell>
        <mxCell id="OuPkgNERS_z0lnA8bcDj-97" value="" style="shape=tableRow;horizontal=0;startSize=0;swimlaneHead=0;swimlaneBody=0;fillColor=none;collapsible=0;dropTarget=0;points=[[0,0.5],[1,0.5]];portConstraint=eastwest;top=0;left=0;right=0;bottom=0;strokeWidth=3;fontSize=13;fontStyle=1" parent="OuPkgNERS_z0lnA8bcDj-90" vertex="1">
          <mxGeometry y="90" width="180" height="30" as="geometry" />
        </mxCell>
        <mxCell id="OuPkgNERS_z0lnA8bcDj-98" value="" style="shape=partialRectangle;connectable=0;fillColor=none;top=0;left=0;bottom=0;right=0;editable=1;overflow=hidden;whiteSpace=wrap;html=1;strokeWidth=3;fontSize=13;fontStyle=1" parent="OuPkgNERS_z0lnA8bcDj-97" vertex="1">
          <mxGeometry width="30" height="30" as="geometry">
            <mxRectangle width="30" height="30" as="alternateBounds" />
          </mxGeometry>
        </mxCell>
        <mxCell id="OuPkgNERS_z0lnA8bcDj-99" value="Date" style="shape=partialRectangle;connectable=0;fillColor=none;top=0;left=0;bottom=0;right=0;align=left;spacingLeft=6;overflow=hidden;whiteSpace=wrap;html=1;strokeWidth=3;fontSize=13;fontStyle=1" parent="OuPkgNERS_z0lnA8bcDj-97" vertex="1">
          <mxGeometry x="30" width="150" height="30" as="geometry">
            <mxRectangle width="150" height="30" as="alternateBounds" />
          </mxGeometry>
        </mxCell>
        <mxCell id="OuPkgNERS_z0lnA8bcDj-100" value="" style="shape=tableRow;horizontal=0;startSize=0;swimlaneHead=0;swimlaneBody=0;fillColor=none;collapsible=0;dropTarget=0;points=[[0,0.5],[1,0.5]];portConstraint=eastwest;top=0;left=0;right=0;bottom=0;strokeWidth=3;fontSize=13;fontStyle=1" parent="OuPkgNERS_z0lnA8bcDj-90" vertex="1">
          <mxGeometry y="120" width="180" height="30" as="geometry" />
        </mxCell>
        <mxCell id="OuPkgNERS_z0lnA8bcDj-101" value="FK" style="shape=partialRectangle;connectable=0;fillColor=none;top=0;left=0;bottom=0;right=0;editable=1;overflow=hidden;whiteSpace=wrap;html=1;strokeWidth=3;fontSize=13;fontStyle=1" parent="OuPkgNERS_z0lnA8bcDj-100" vertex="1">
          <mxGeometry width="30" height="30" as="geometry">
            <mxRectangle width="30" height="30" as="alternateBounds" />
          </mxGeometry>
        </mxCell>
        <mxCell id="OuPkgNERS_z0lnA8bcDj-102" value="Vacancy_ID" style="shape=partialRectangle;connectable=0;fillColor=none;top=0;left=0;bottom=0;right=0;align=left;spacingLeft=6;overflow=hidden;whiteSpace=wrap;html=1;strokeWidth=3;fontSize=13;fontStyle=1" parent="OuPkgNERS_z0lnA8bcDj-100" vertex="1">
          <mxGeometry x="30" width="150" height="30" as="geometry">
            <mxRectangle width="150" height="30" as="alternateBounds" />
          </mxGeometry>
        </mxCell>
        <mxCell id="-2zlEx04WW2Jvss6zfBr-1" value="" style="shape=tableRow;horizontal=0;startSize=0;swimlaneHead=0;swimlaneBody=0;fillColor=none;collapsible=0;dropTarget=0;points=[[0,0.5],[1,0.5]];portConstraint=eastwest;top=0;left=0;right=0;bottom=0;strokeWidth=3;fontSize=13;fontStyle=1" vertex="1" parent="OuPkgNERS_z0lnA8bcDj-90">
          <mxGeometry y="150" width="180" height="30" as="geometry" />
        </mxCell>
        <mxCell id="-2zlEx04WW2Jvss6zfBr-2" value="FK" style="shape=partialRectangle;connectable=0;fillColor=none;top=0;left=0;bottom=0;right=0;editable=1;overflow=hidden;whiteSpace=wrap;html=1;strokeWidth=3;fontSize=13;fontStyle=1" vertex="1" parent="-2zlEx04WW2Jvss6zfBr-1">
          <mxGeometry width="30" height="30" as="geometry">
            <mxRectangle width="30" height="30" as="alternateBounds" />
          </mxGeometry>
        </mxCell>
        <mxCell id="-2zlEx04WW2Jvss6zfBr-3" value="Candidate_ID" style="shape=partialRectangle;connectable=0;fillColor=none;top=0;left=0;bottom=0;right=0;align=left;spacingLeft=6;overflow=hidden;whiteSpace=wrap;html=1;strokeWidth=3;fontSize=13;fontStyle=1" vertex="1" parent="-2zlEx04WW2Jvss6zfBr-1">
          <mxGeometry x="30" width="150" height="30" as="geometry">
            <mxRectangle width="150" height="30" as="alternateBounds" />
          </mxGeometry>
        </mxCell>
        <mxCell id="-2zlEx04WW2Jvss6zfBr-30" value="" style="shape=tableRow;horizontal=0;startSize=0;swimlaneHead=0;swimlaneBody=0;fillColor=none;collapsible=0;dropTarget=0;points=[[0,0.5],[1,0.5]];portConstraint=eastwest;top=0;left=0;right=0;bottom=0;strokeWidth=3;fontSize=13;fontStyle=1" vertex="1" parent="OuPkgNERS_z0lnA8bcDj-90">
          <mxGeometry y="180" width="180" height="30" as="geometry" />
        </mxCell>
        <mxCell id="-2zlEx04WW2Jvss6zfBr-31" value="FK" style="shape=partialRectangle;connectable=0;fillColor=none;top=0;left=0;bottom=0;right=0;editable=1;overflow=hidden;whiteSpace=wrap;html=1;strokeWidth=3;fontSize=13;fontStyle=1" vertex="1" parent="-2zlEx04WW2Jvss6zfBr-30">
          <mxGeometry width="30" height="30" as="geometry">
            <mxRectangle width="30" height="30" as="alternateBounds" />
          </mxGeometry>
        </mxCell>
        <mxCell id="-2zlEx04WW2Jvss6zfBr-32" value="project_id" style="shape=partialRectangle;connectable=0;fillColor=none;top=0;left=0;bottom=0;right=0;align=left;spacingLeft=6;overflow=hidden;whiteSpace=wrap;html=1;strokeWidth=3;fontSize=13;fontStyle=1" vertex="1" parent="-2zlEx04WW2Jvss6zfBr-30">
          <mxGeometry x="30" width="150" height="30" as="geometry">
            <mxRectangle width="150" height="30" as="alternateBounds" />
          </mxGeometry>
        </mxCell>
        <mxCell id="OuPkgNERS_z0lnA8bcDj-103" value="Candidate" style="shape=table;startSize=30;container=1;collapsible=1;childLayout=tableLayout;fixedRows=1;rowLines=0;fontStyle=1;align=center;resizeLast=1;html=1;strokeWidth=3;fontSize=13;" parent="1" vertex="1">
          <mxGeometry x="2610" y="210" width="180" height="180" as="geometry" />
        </mxCell>
        <mxCell id="OuPkgNERS_z0lnA8bcDj-104" value="" style="shape=tableRow;horizontal=0;startSize=0;swimlaneHead=0;swimlaneBody=0;fillColor=none;collapsible=0;dropTarget=0;points=[[0,0.5],[1,0.5]];portConstraint=eastwest;top=0;left=0;right=0;bottom=1;strokeWidth=3;fontSize=13;fontStyle=1" parent="OuPkgNERS_z0lnA8bcDj-103" vertex="1">
          <mxGeometry y="30" width="180" height="30" as="geometry" />
        </mxCell>
        <mxCell id="OuPkgNERS_z0lnA8bcDj-105" value="PK" style="shape=partialRectangle;connectable=0;fillColor=none;top=0;left=0;bottom=0;right=0;fontStyle=1;overflow=hidden;whiteSpace=wrap;html=1;strokeWidth=3;fontSize=13;" parent="OuPkgNERS_z0lnA8bcDj-104" vertex="1">
          <mxGeometry width="30" height="30" as="geometry">
            <mxRectangle width="30" height="30" as="alternateBounds" />
          </mxGeometry>
        </mxCell>
        <mxCell id="OuPkgNERS_z0lnA8bcDj-106" value="Candidate_ID" style="shape=partialRectangle;connectable=0;fillColor=none;top=0;left=0;bottom=0;right=0;align=left;spacingLeft=6;fontStyle=5;overflow=hidden;whiteSpace=wrap;html=1;strokeWidth=3;fontSize=13;" parent="OuPkgNERS_z0lnA8bcDj-104" vertex="1">
          <mxGeometry x="30" width="150" height="30" as="geometry">
            <mxRectangle width="150" height="30" as="alternateBounds" />
          </mxGeometry>
        </mxCell>
        <mxCell id="OuPkgNERS_z0lnA8bcDj-107" value="" style="shape=tableRow;horizontal=0;startSize=0;swimlaneHead=0;swimlaneBody=0;fillColor=none;collapsible=0;dropTarget=0;points=[[0,0.5],[1,0.5]];portConstraint=eastwest;top=0;left=0;right=0;bottom=0;strokeWidth=3;fontSize=13;fontStyle=1" parent="OuPkgNERS_z0lnA8bcDj-103" vertex="1">
          <mxGeometry y="60" width="180" height="30" as="geometry" />
        </mxCell>
        <mxCell id="OuPkgNERS_z0lnA8bcDj-108" value="" style="shape=partialRectangle;connectable=0;fillColor=none;top=0;left=0;bottom=0;right=0;editable=1;overflow=hidden;whiteSpace=wrap;html=1;strokeWidth=3;fontSize=13;fontStyle=1" parent="OuPkgNERS_z0lnA8bcDj-107" vertex="1">
          <mxGeometry width="30" height="30" as="geometry">
            <mxRectangle width="30" height="30" as="alternateBounds" />
          </mxGeometry>
        </mxCell>
        <mxCell id="OuPkgNERS_z0lnA8bcDj-109" value="Name" style="shape=partialRectangle;connectable=0;fillColor=none;top=0;left=0;bottom=0;right=0;align=left;spacingLeft=6;overflow=hidden;whiteSpace=wrap;html=1;strokeWidth=3;fontSize=13;fontStyle=1" parent="OuPkgNERS_z0lnA8bcDj-107" vertex="1">
          <mxGeometry x="30" width="150" height="30" as="geometry">
            <mxRectangle width="150" height="30" as="alternateBounds" />
          </mxGeometry>
        </mxCell>
        <mxCell id="OuPkgNERS_z0lnA8bcDj-110" value="" style="shape=tableRow;horizontal=0;startSize=0;swimlaneHead=0;swimlaneBody=0;fillColor=none;collapsible=0;dropTarget=0;points=[[0,0.5],[1,0.5]];portConstraint=eastwest;top=0;left=0;right=0;bottom=0;strokeWidth=3;fontSize=13;fontStyle=1" parent="OuPkgNERS_z0lnA8bcDj-103" vertex="1">
          <mxGeometry y="90" width="180" height="30" as="geometry" />
        </mxCell>
        <mxCell id="OuPkgNERS_z0lnA8bcDj-111" value="" style="shape=partialRectangle;connectable=0;fillColor=none;top=0;left=0;bottom=0;right=0;editable=1;overflow=hidden;whiteSpace=wrap;html=1;strokeWidth=3;fontSize=13;fontStyle=1" parent="OuPkgNERS_z0lnA8bcDj-110" vertex="1">
          <mxGeometry width="30" height="30" as="geometry">
            <mxRectangle width="30" height="30" as="alternateBounds" />
          </mxGeometry>
        </mxCell>
        <mxCell id="OuPkgNERS_z0lnA8bcDj-112" value="Status" style="shape=partialRectangle;connectable=0;fillColor=none;top=0;left=0;bottom=0;right=0;align=left;spacingLeft=6;overflow=hidden;whiteSpace=wrap;html=1;strokeWidth=3;fontSize=13;fontStyle=1" parent="OuPkgNERS_z0lnA8bcDj-110" vertex="1">
          <mxGeometry x="30" width="150" height="30" as="geometry">
            <mxRectangle width="150" height="30" as="alternateBounds" />
          </mxGeometry>
        </mxCell>
        <mxCell id="OuPkgNERS_z0lnA8bcDj-113" value="" style="shape=tableRow;horizontal=0;startSize=0;swimlaneHead=0;swimlaneBody=0;fillColor=none;collapsible=0;dropTarget=0;points=[[0,0.5],[1,0.5]];portConstraint=eastwest;top=0;left=0;right=0;bottom=0;strokeWidth=3;fontSize=13;fontStyle=1" parent="OuPkgNERS_z0lnA8bcDj-103" vertex="1">
          <mxGeometry y="120" width="180" height="30" as="geometry" />
        </mxCell>
        <mxCell id="OuPkgNERS_z0lnA8bcDj-114" value="" style="shape=partialRectangle;connectable=0;fillColor=none;top=0;left=0;bottom=0;right=0;editable=1;overflow=hidden;whiteSpace=wrap;html=1;strokeWidth=3;fontSize=13;fontStyle=1" parent="OuPkgNERS_z0lnA8bcDj-113" vertex="1">
          <mxGeometry width="30" height="30" as="geometry">
            <mxRectangle width="30" height="30" as="alternateBounds" />
          </mxGeometry>
        </mxCell>
        <mxCell id="OuPkgNERS_z0lnA8bcDj-115" value="Applied_Date" style="shape=partialRectangle;connectable=0;fillColor=none;top=0;left=0;bottom=0;right=0;align=left;spacingLeft=6;overflow=hidden;whiteSpace=wrap;html=1;strokeWidth=3;fontSize=13;fontStyle=1" parent="OuPkgNERS_z0lnA8bcDj-113" vertex="1">
          <mxGeometry x="30" width="150" height="30" as="geometry">
            <mxRectangle width="150" height="30" as="alternateBounds" />
          </mxGeometry>
        </mxCell>
        <mxCell id="-2zlEx04WW2Jvss6zfBr-10" value="" style="shape=tableRow;horizontal=0;startSize=0;swimlaneHead=0;swimlaneBody=0;fillColor=none;collapsible=0;dropTarget=0;points=[[0,0.5],[1,0.5]];portConstraint=eastwest;top=0;left=0;right=0;bottom=0;strokeWidth=3;fontSize=13;fontStyle=1" vertex="1" parent="OuPkgNERS_z0lnA8bcDj-103">
          <mxGeometry y="150" width="180" height="30" as="geometry" />
        </mxCell>
        <mxCell id="-2zlEx04WW2Jvss6zfBr-11" value="" style="shape=partialRectangle;connectable=0;fillColor=none;top=0;left=0;bottom=0;right=0;editable=1;overflow=hidden;whiteSpace=wrap;html=1;strokeWidth=3;fontSize=13;fontStyle=1" vertex="1" parent="-2zlEx04WW2Jvss6zfBr-10">
          <mxGeometry width="30" height="30" as="geometry">
            <mxRectangle width="30" height="30" as="alternateBounds" />
          </mxGeometry>
        </mxCell>
        <mxCell id="-2zlEx04WW2Jvss6zfBr-12" value="email" style="shape=partialRectangle;connectable=0;fillColor=none;top=0;left=0;bottom=0;right=0;align=left;spacingLeft=6;overflow=hidden;whiteSpace=wrap;html=1;strokeWidth=3;fontSize=13;fontStyle=1" vertex="1" parent="-2zlEx04WW2Jvss6zfBr-10">
          <mxGeometry x="30" width="150" height="30" as="geometry">
            <mxRectangle width="150" height="30" as="alternateBounds" />
          </mxGeometry>
        </mxCell>
        <mxCell id="OuPkgNERS_z0lnA8bcDj-116" value="Interviewer" style="shape=table;startSize=30;container=1;collapsible=1;childLayout=tableLayout;fixedRows=1;rowLines=0;fontStyle=1;align=center;resizeLast=1;html=1;strokeWidth=3;fontSize=13;" parent="1" vertex="1">
          <mxGeometry x="2650" y="-370" width="180" height="120" as="geometry" />
        </mxCell>
        <mxCell id="OuPkgNERS_z0lnA8bcDj-117" value="" style="shape=tableRow;horizontal=0;startSize=0;swimlaneHead=0;swimlaneBody=0;fillColor=none;collapsible=0;dropTarget=0;points=[[0,0.5],[1,0.5]];portConstraint=eastwest;top=0;left=0;right=0;bottom=1;strokeWidth=3;fontSize=13;fontStyle=1" parent="OuPkgNERS_z0lnA8bcDj-116" vertex="1">
          <mxGeometry y="30" width="180" height="30" as="geometry" />
        </mxCell>
        <mxCell id="OuPkgNERS_z0lnA8bcDj-118" value="PK" style="shape=partialRectangle;connectable=0;fillColor=none;top=0;left=0;bottom=0;right=0;fontStyle=1;overflow=hidden;whiteSpace=wrap;html=1;strokeWidth=3;fontSize=13;" parent="OuPkgNERS_z0lnA8bcDj-117" vertex="1">
          <mxGeometry width="30" height="30" as="geometry">
            <mxRectangle width="30" height="30" as="alternateBounds" />
          </mxGeometry>
        </mxCell>
        <mxCell id="OuPkgNERS_z0lnA8bcDj-119" value="Interviewer_ID" style="shape=partialRectangle;connectable=0;fillColor=none;top=0;left=0;bottom=0;right=0;align=left;spacingLeft=6;fontStyle=5;overflow=hidden;whiteSpace=wrap;html=1;strokeWidth=3;fontSize=13;" parent="OuPkgNERS_z0lnA8bcDj-117" vertex="1">
          <mxGeometry x="30" width="150" height="30" as="geometry">
            <mxRectangle width="150" height="30" as="alternateBounds" />
          </mxGeometry>
        </mxCell>
        <mxCell id="OuPkgNERS_z0lnA8bcDj-120" value="" style="shape=tableRow;horizontal=0;startSize=0;swimlaneHead=0;swimlaneBody=0;fillColor=none;collapsible=0;dropTarget=0;points=[[0,0.5],[1,0.5]];portConstraint=eastwest;top=0;left=0;right=0;bottom=0;strokeWidth=3;fontSize=13;fontStyle=1" parent="OuPkgNERS_z0lnA8bcDj-116" vertex="1">
          <mxGeometry y="60" width="180" height="30" as="geometry" />
        </mxCell>
        <mxCell id="OuPkgNERS_z0lnA8bcDj-121" value="" style="shape=partialRectangle;connectable=0;fillColor=none;top=0;left=0;bottom=0;right=0;editable=1;overflow=hidden;whiteSpace=wrap;html=1;strokeWidth=3;fontSize=13;fontStyle=1" parent="OuPkgNERS_z0lnA8bcDj-120" vertex="1">
          <mxGeometry width="30" height="30" as="geometry">
            <mxRectangle width="30" height="30" as="alternateBounds" />
          </mxGeometry>
        </mxCell>
        <mxCell id="OuPkgNERS_z0lnA8bcDj-122" value="Name" style="shape=partialRectangle;connectable=0;fillColor=none;top=0;left=0;bottom=0;right=0;align=left;spacingLeft=6;overflow=hidden;whiteSpace=wrap;html=1;strokeWidth=3;fontSize=13;fontStyle=1" parent="OuPkgNERS_z0lnA8bcDj-120" vertex="1">
          <mxGeometry x="30" width="150" height="30" as="geometry">
            <mxRectangle width="150" height="30" as="alternateBounds" />
          </mxGeometry>
        </mxCell>
        <mxCell id="OuPkgNERS_z0lnA8bcDj-123" value="" style="shape=tableRow;horizontal=0;startSize=0;swimlaneHead=0;swimlaneBody=0;fillColor=none;collapsible=0;dropTarget=0;points=[[0,0.5],[1,0.5]];portConstraint=eastwest;top=0;left=0;right=0;bottom=0;strokeWidth=3;fontSize=13;fontStyle=1" parent="OuPkgNERS_z0lnA8bcDj-116" vertex="1">
          <mxGeometry y="90" width="180" height="30" as="geometry" />
        </mxCell>
        <mxCell id="OuPkgNERS_z0lnA8bcDj-124" value="" style="shape=partialRectangle;connectable=0;fillColor=none;top=0;left=0;bottom=0;right=0;editable=1;overflow=hidden;whiteSpace=wrap;html=1;strokeWidth=3;fontSize=13;fontStyle=1" parent="OuPkgNERS_z0lnA8bcDj-123" vertex="1">
          <mxGeometry width="30" height="30" as="geometry">
            <mxRectangle width="30" height="30" as="alternateBounds" />
          </mxGeometry>
        </mxCell>
        <mxCell id="OuPkgNERS_z0lnA8bcDj-125" value="Role" style="shape=partialRectangle;connectable=0;fillColor=none;top=0;left=0;bottom=0;right=0;align=left;spacingLeft=6;overflow=hidden;whiteSpace=wrap;html=1;strokeWidth=3;fontSize=13;fontStyle=1" parent="OuPkgNERS_z0lnA8bcDj-123" vertex="1">
          <mxGeometry x="30" width="150" height="30" as="geometry">
            <mxRectangle width="150" height="30" as="alternateBounds" />
          </mxGeometry>
        </mxCell>
        <mxCell id="OuPkgNERS_z0lnA8bcDj-129" value="Vacancy" style="shape=table;startSize=30;container=1;collapsible=1;childLayout=tableLayout;fixedRows=1;rowLines=0;fontStyle=1;align=center;resizeLast=1;html=1;strokeWidth=3;fontSize=13;" parent="1" vertex="1">
          <mxGeometry x="2160" y="500" width="180" height="210" as="geometry" />
        </mxCell>
        <mxCell id="OuPkgNERS_z0lnA8bcDj-130" value="" style="shape=tableRow;horizontal=0;startSize=0;swimlaneHead=0;swimlaneBody=0;fillColor=none;collapsible=0;dropTarget=0;points=[[0,0.5],[1,0.5]];portConstraint=eastwest;top=0;left=0;right=0;bottom=1;strokeWidth=3;fontSize=13;fontStyle=1" parent="OuPkgNERS_z0lnA8bcDj-129" vertex="1">
          <mxGeometry y="30" width="180" height="30" as="geometry" />
        </mxCell>
        <mxCell id="OuPkgNERS_z0lnA8bcDj-131" value="PK" style="shape=partialRectangle;connectable=0;fillColor=none;top=0;left=0;bottom=0;right=0;fontStyle=1;overflow=hidden;whiteSpace=wrap;html=1;strokeWidth=3;fontSize=13;" parent="OuPkgNERS_z0lnA8bcDj-130" vertex="1">
          <mxGeometry width="30" height="30" as="geometry">
            <mxRectangle width="30" height="30" as="alternateBounds" />
          </mxGeometry>
        </mxCell>
        <mxCell id="OuPkgNERS_z0lnA8bcDj-132" value="Vacancy_ID" style="shape=partialRectangle;connectable=0;fillColor=none;top=0;left=0;bottom=0;right=0;align=left;spacingLeft=6;fontStyle=5;overflow=hidden;whiteSpace=wrap;html=1;strokeWidth=3;fontSize=13;" parent="OuPkgNERS_z0lnA8bcDj-130" vertex="1">
          <mxGeometry x="30" width="150" height="30" as="geometry">
            <mxRectangle width="150" height="30" as="alternateBounds" />
          </mxGeometry>
        </mxCell>
        <mxCell id="OuPkgNERS_z0lnA8bcDj-133" value="" style="shape=tableRow;horizontal=0;startSize=0;swimlaneHead=0;swimlaneBody=0;fillColor=none;collapsible=0;dropTarget=0;points=[[0,0.5],[1,0.5]];portConstraint=eastwest;top=0;left=0;right=0;bottom=0;strokeWidth=3;fontSize=13;fontStyle=1" parent="OuPkgNERS_z0lnA8bcDj-129" vertex="1">
          <mxGeometry y="60" width="180" height="30" as="geometry" />
        </mxCell>
        <mxCell id="OuPkgNERS_z0lnA8bcDj-134" value="FK" style="shape=partialRectangle;connectable=0;fillColor=none;top=0;left=0;bottom=0;right=0;editable=1;overflow=hidden;whiteSpace=wrap;html=1;strokeWidth=3;fontSize=13;fontStyle=1" parent="OuPkgNERS_z0lnA8bcDj-133" vertex="1">
          <mxGeometry width="30" height="30" as="geometry">
            <mxRectangle width="30" height="30" as="alternateBounds" />
          </mxGeometry>
        </mxCell>
        <mxCell id="OuPkgNERS_z0lnA8bcDj-135" value="Interview_ID" style="shape=partialRectangle;connectable=0;fillColor=none;top=0;left=0;bottom=0;right=0;align=left;spacingLeft=6;overflow=hidden;whiteSpace=wrap;html=1;strokeWidth=3;fontSize=13;fontStyle=1" parent="OuPkgNERS_z0lnA8bcDj-133" vertex="1">
          <mxGeometry x="30" width="150" height="30" as="geometry">
            <mxRectangle width="150" height="30" as="alternateBounds" />
          </mxGeometry>
        </mxCell>
        <mxCell id="OuPkgNERS_z0lnA8bcDj-136" value="" style="shape=tableRow;horizontal=0;startSize=0;swimlaneHead=0;swimlaneBody=0;fillColor=none;collapsible=0;dropTarget=0;points=[[0,0.5],[1,0.5]];portConstraint=eastwest;top=0;left=0;right=0;bottom=0;strokeWidth=3;fontSize=13;fontStyle=1" parent="OuPkgNERS_z0lnA8bcDj-129" vertex="1">
          <mxGeometry y="90" width="180" height="30" as="geometry" />
        </mxCell>
        <mxCell id="OuPkgNERS_z0lnA8bcDj-137" value="" style="shape=partialRectangle;connectable=0;fillColor=none;top=0;left=0;bottom=0;right=0;editable=1;overflow=hidden;whiteSpace=wrap;html=1;strokeWidth=3;fontSize=13;fontStyle=1" parent="OuPkgNERS_z0lnA8bcDj-136" vertex="1">
          <mxGeometry width="30" height="30" as="geometry">
            <mxRectangle width="30" height="30" as="alternateBounds" />
          </mxGeometry>
        </mxCell>
        <mxCell id="OuPkgNERS_z0lnA8bcDj-138" value="No_of_Interviews" style="shape=partialRectangle;connectable=0;fillColor=none;top=0;left=0;bottom=0;right=0;align=left;spacingLeft=6;overflow=hidden;whiteSpace=wrap;html=1;strokeWidth=3;fontSize=13;fontStyle=1" parent="OuPkgNERS_z0lnA8bcDj-136" vertex="1">
          <mxGeometry x="30" width="150" height="30" as="geometry">
            <mxRectangle width="150" height="30" as="alternateBounds" />
          </mxGeometry>
        </mxCell>
        <mxCell id="OuPkgNERS_z0lnA8bcDj-139" value="" style="shape=tableRow;horizontal=0;startSize=0;swimlaneHead=0;swimlaneBody=0;fillColor=none;collapsible=0;dropTarget=0;points=[[0,0.5],[1,0.5]];portConstraint=eastwest;top=0;left=0;right=0;bottom=0;strokeWidth=3;fontSize=13;fontStyle=1" parent="OuPkgNERS_z0lnA8bcDj-129" vertex="1">
          <mxGeometry y="120" width="180" height="30" as="geometry" />
        </mxCell>
        <mxCell id="OuPkgNERS_z0lnA8bcDj-140" value="" style="shape=partialRectangle;connectable=0;fillColor=none;top=0;left=0;bottom=0;right=0;editable=1;overflow=hidden;whiteSpace=wrap;html=1;strokeWidth=3;fontSize=13;fontStyle=1" parent="OuPkgNERS_z0lnA8bcDj-139" vertex="1">
          <mxGeometry width="30" height="30" as="geometry">
            <mxRectangle width="30" height="30" as="alternateBounds" />
          </mxGeometry>
        </mxCell>
        <mxCell id="OuPkgNERS_z0lnA8bcDj-141" value="Open_Date" style="shape=partialRectangle;connectable=0;fillColor=none;top=0;left=0;bottom=0;right=0;align=left;spacingLeft=6;overflow=hidden;whiteSpace=wrap;html=1;strokeWidth=3;fontSize=13;fontStyle=1" parent="OuPkgNERS_z0lnA8bcDj-139" vertex="1">
          <mxGeometry x="30" width="150" height="30" as="geometry">
            <mxRectangle width="150" height="30" as="alternateBounds" />
          </mxGeometry>
        </mxCell>
        <mxCell id="OuPkgNERS_z0lnA8bcDj-149" value="" style="shape=tableRow;horizontal=0;startSize=0;swimlaneHead=0;swimlaneBody=0;fillColor=none;collapsible=0;dropTarget=0;points=[[0,0.5],[1,0.5]];portConstraint=eastwest;top=0;left=0;right=0;bottom=0;strokeWidth=3;fontSize=13;fontStyle=1" parent="OuPkgNERS_z0lnA8bcDj-129" vertex="1">
          <mxGeometry y="150" width="180" height="30" as="geometry" />
        </mxCell>
        <mxCell id="OuPkgNERS_z0lnA8bcDj-150" value="" style="shape=partialRectangle;connectable=0;fillColor=none;top=0;left=0;bottom=0;right=0;editable=1;overflow=hidden;whiteSpace=wrap;html=1;strokeWidth=3;fontSize=13;fontStyle=1" parent="OuPkgNERS_z0lnA8bcDj-149" vertex="1">
          <mxGeometry width="30" height="30" as="geometry">
            <mxRectangle width="30" height="30" as="alternateBounds" />
          </mxGeometry>
        </mxCell>
        <mxCell id="OuPkgNERS_z0lnA8bcDj-151" value="Close_date" style="shape=partialRectangle;connectable=0;fillColor=none;top=0;left=0;bottom=0;right=0;align=left;spacingLeft=6;overflow=hidden;whiteSpace=wrap;html=1;strokeWidth=3;fontSize=13;fontStyle=1" parent="OuPkgNERS_z0lnA8bcDj-149" vertex="1">
          <mxGeometry x="30" width="150" height="30" as="geometry">
            <mxRectangle width="150" height="30" as="alternateBounds" />
          </mxGeometry>
        </mxCell>
        <mxCell id="OuPkgNERS_z0lnA8bcDj-185" value="" style="shape=tableRow;horizontal=0;startSize=0;swimlaneHead=0;swimlaneBody=0;fillColor=none;collapsible=0;dropTarget=0;points=[[0,0.5],[1,0.5]];portConstraint=eastwest;top=0;left=0;right=0;bottom=0;strokeWidth=3;fontSize=13;fontStyle=1" parent="OuPkgNERS_z0lnA8bcDj-129" vertex="1">
          <mxGeometry y="180" width="180" height="30" as="geometry" />
        </mxCell>
        <mxCell id="OuPkgNERS_z0lnA8bcDj-186" value="" style="shape=partialRectangle;connectable=0;fillColor=none;top=0;left=0;bottom=0;right=0;editable=1;overflow=hidden;whiteSpace=wrap;html=1;strokeWidth=3;fontSize=13;fontStyle=1" parent="OuPkgNERS_z0lnA8bcDj-185" vertex="1">
          <mxGeometry width="30" height="30" as="geometry">
            <mxRectangle width="30" height="30" as="alternateBounds" />
          </mxGeometry>
        </mxCell>
        <mxCell id="OuPkgNERS_z0lnA8bcDj-187" value="Job_Role" style="shape=partialRectangle;connectable=0;fillColor=none;top=0;left=0;bottom=0;right=0;align=left;spacingLeft=6;overflow=hidden;whiteSpace=wrap;html=1;strokeWidth=3;fontSize=13;fontStyle=1" parent="OuPkgNERS_z0lnA8bcDj-185" vertex="1">
          <mxGeometry x="30" width="150" height="30" as="geometry">
            <mxRectangle width="150" height="30" as="alternateBounds" />
          </mxGeometry>
        </mxCell>
        <mxCell id="OuPkgNERS_z0lnA8bcDj-152" value="Interview_feedback" style="shape=table;startSize=30;container=1;collapsible=1;childLayout=tableLayout;fixedRows=1;rowLines=0;fontStyle=1;align=center;resizeLast=1;html=1;strokeWidth=3;fontSize=13;" parent="1" vertex="1">
          <mxGeometry x="1970" y="-110" width="180" height="180" as="geometry" />
        </mxCell>
        <mxCell id="OuPkgNERS_z0lnA8bcDj-156" value="" style="shape=tableRow;horizontal=0;startSize=0;swimlaneHead=0;swimlaneBody=0;fillColor=none;collapsible=0;dropTarget=0;points=[[0,0.5],[1,0.5]];portConstraint=eastwest;top=0;left=0;right=0;bottom=0;strokeWidth=3;fontSize=13;fontStyle=1" parent="OuPkgNERS_z0lnA8bcDj-152" vertex="1">
          <mxGeometry y="30" width="180" height="30" as="geometry" />
        </mxCell>
        <mxCell id="OuPkgNERS_z0lnA8bcDj-157" value="FK" style="shape=partialRectangle;connectable=0;fillColor=none;top=0;left=0;bottom=0;right=0;editable=1;overflow=hidden;whiteSpace=wrap;html=1;strokeWidth=3;fontSize=13;fontStyle=1" parent="OuPkgNERS_z0lnA8bcDj-156" vertex="1">
          <mxGeometry width="30" height="30" as="geometry">
            <mxRectangle width="30" height="30" as="alternateBounds" />
          </mxGeometry>
        </mxCell>
        <mxCell id="OuPkgNERS_z0lnA8bcDj-158" value="interview_ID" style="shape=partialRectangle;connectable=0;fillColor=none;top=0;left=0;bottom=0;right=0;align=left;spacingLeft=6;overflow=hidden;whiteSpace=wrap;html=1;strokeWidth=3;fontSize=13;fontStyle=1" parent="OuPkgNERS_z0lnA8bcDj-156" vertex="1">
          <mxGeometry x="30" width="150" height="30" as="geometry">
            <mxRectangle width="150" height="30" as="alternateBounds" />
          </mxGeometry>
        </mxCell>
        <mxCell id="OuPkgNERS_z0lnA8bcDj-159" value="" style="shape=tableRow;horizontal=0;startSize=0;swimlaneHead=0;swimlaneBody=0;fillColor=none;collapsible=0;dropTarget=0;points=[[0,0.5],[1,0.5]];portConstraint=eastwest;top=0;left=0;right=0;bottom=0;strokeWidth=3;fontSize=13;fontStyle=1" parent="OuPkgNERS_z0lnA8bcDj-152" vertex="1">
          <mxGeometry y="60" width="180" height="30" as="geometry" />
        </mxCell>
        <mxCell id="OuPkgNERS_z0lnA8bcDj-160" value="" style="shape=partialRectangle;connectable=0;fillColor=none;top=0;left=0;bottom=0;right=0;editable=1;overflow=hidden;whiteSpace=wrap;html=1;strokeWidth=3;fontSize=13;fontStyle=1" parent="OuPkgNERS_z0lnA8bcDj-159" vertex="1">
          <mxGeometry width="30" height="30" as="geometry">
            <mxRectangle width="30" height="30" as="alternateBounds" />
          </mxGeometry>
        </mxCell>
        <mxCell id="OuPkgNERS_z0lnA8bcDj-161" value="Verdict" style="shape=partialRectangle;connectable=0;fillColor=none;top=0;left=0;bottom=0;right=0;align=left;spacingLeft=6;overflow=hidden;whiteSpace=wrap;html=1;strokeWidth=3;fontSize=13;fontStyle=1" parent="OuPkgNERS_z0lnA8bcDj-159" vertex="1">
          <mxGeometry x="30" width="150" height="30" as="geometry">
            <mxRectangle width="150" height="30" as="alternateBounds" />
          </mxGeometry>
        </mxCell>
        <mxCell id="OuPkgNERS_z0lnA8bcDj-162" value="" style="shape=tableRow;horizontal=0;startSize=0;swimlaneHead=0;swimlaneBody=0;fillColor=none;collapsible=0;dropTarget=0;points=[[0,0.5],[1,0.5]];portConstraint=eastwest;top=0;left=0;right=0;bottom=0;strokeWidth=3;fontSize=13;fontStyle=1" parent="OuPkgNERS_z0lnA8bcDj-152" vertex="1">
          <mxGeometry y="90" width="180" height="30" as="geometry" />
        </mxCell>
        <mxCell id="OuPkgNERS_z0lnA8bcDj-163" value="" style="shape=partialRectangle;connectable=0;fillColor=none;top=0;left=0;bottom=0;right=0;editable=1;overflow=hidden;whiteSpace=wrap;html=1;strokeWidth=3;fontSize=13;fontStyle=1" parent="OuPkgNERS_z0lnA8bcDj-162" vertex="1">
          <mxGeometry width="30" height="30" as="geometry">
            <mxRectangle width="30" height="30" as="alternateBounds" />
          </mxGeometry>
        </mxCell>
        <mxCell id="OuPkgNERS_z0lnA8bcDj-164" value="Rating" style="shape=partialRectangle;connectable=0;fillColor=none;top=0;left=0;bottom=0;right=0;align=left;spacingLeft=6;overflow=hidden;whiteSpace=wrap;html=1;strokeWidth=3;fontSize=13;fontStyle=1" parent="OuPkgNERS_z0lnA8bcDj-162" vertex="1">
          <mxGeometry x="30" width="150" height="30" as="geometry">
            <mxRectangle width="150" height="30" as="alternateBounds" />
          </mxGeometry>
        </mxCell>
        <mxCell id="OuPkgNERS_z0lnA8bcDj-178" value="" style="shape=tableRow;horizontal=0;startSize=0;swimlaneHead=0;swimlaneBody=0;fillColor=none;collapsible=0;dropTarget=0;points=[[0,0.5],[1,0.5]];portConstraint=eastwest;top=0;left=0;right=0;bottom=0;strokeWidth=3;fontSize=13;fontStyle=1" parent="OuPkgNERS_z0lnA8bcDj-152" vertex="1">
          <mxGeometry y="120" width="180" height="30" as="geometry" />
        </mxCell>
        <mxCell id="OuPkgNERS_z0lnA8bcDj-179" value="" style="shape=partialRectangle;connectable=0;fillColor=none;top=0;left=0;bottom=0;right=0;editable=1;overflow=hidden;whiteSpace=wrap;html=1;strokeWidth=3;fontSize=13;fontStyle=1" parent="OuPkgNERS_z0lnA8bcDj-178" vertex="1">
          <mxGeometry width="30" height="30" as="geometry">
            <mxRectangle width="30" height="30" as="alternateBounds" />
          </mxGeometry>
        </mxCell>
        <mxCell id="OuPkgNERS_z0lnA8bcDj-180" value="feedback_comment" style="shape=partialRectangle;connectable=0;fillColor=none;top=0;left=0;bottom=0;right=0;align=left;spacingLeft=6;overflow=hidden;whiteSpace=wrap;html=1;strokeWidth=3;fontSize=13;fontStyle=1" parent="OuPkgNERS_z0lnA8bcDj-178" vertex="1">
          <mxGeometry x="30" width="150" height="30" as="geometry">
            <mxRectangle width="150" height="30" as="alternateBounds" />
          </mxGeometry>
        </mxCell>
        <mxCell id="-2zlEx04WW2Jvss6zfBr-43" value="" style="shape=tableRow;horizontal=0;startSize=0;swimlaneHead=0;swimlaneBody=0;fillColor=none;collapsible=0;dropTarget=0;points=[[0,0.5],[1,0.5]];portConstraint=eastwest;top=0;left=0;right=0;bottom=0;strokeWidth=3;fontSize=13;fontStyle=1" vertex="1" parent="OuPkgNERS_z0lnA8bcDj-152">
          <mxGeometry y="150" width="180" height="30" as="geometry" />
        </mxCell>
        <mxCell id="-2zlEx04WW2Jvss6zfBr-44" value="FK" style="shape=partialRectangle;connectable=0;fillColor=none;top=0;left=0;bottom=0;right=0;editable=1;overflow=hidden;whiteSpace=wrap;html=1;strokeWidth=3;fontSize=13;fontStyle=1" vertex="1" parent="-2zlEx04WW2Jvss6zfBr-43">
          <mxGeometry width="30" height="30" as="geometry">
            <mxRectangle width="30" height="30" as="alternateBounds" />
          </mxGeometry>
        </mxCell>
        <mxCell id="-2zlEx04WW2Jvss6zfBr-45" value="inteviewer_id" style="shape=partialRectangle;connectable=0;fillColor=none;top=0;left=0;bottom=0;right=0;align=left;spacingLeft=6;overflow=hidden;whiteSpace=wrap;html=1;strokeWidth=3;fontSize=13;fontStyle=1" vertex="1" parent="-2zlEx04WW2Jvss6zfBr-43">
          <mxGeometry x="30" width="150" height="30" as="geometry">
            <mxRectangle width="150" height="30" as="alternateBounds" />
          </mxGeometry>
        </mxCell>
        <mxCell id="OuPkgNERS_z0lnA8bcDj-165" value="project" style="shape=table;startSize=30;container=1;collapsible=1;childLayout=tableLayout;fixedRows=1;rowLines=0;fontStyle=1;align=center;resizeLast=1;html=1;strokeWidth=3;fontSize=13;" parent="1" vertex="1">
          <mxGeometry x="1810" y="500" width="180" height="210" as="geometry" />
        </mxCell>
        <mxCell id="OuPkgNERS_z0lnA8bcDj-166" value="" style="shape=tableRow;horizontal=0;startSize=0;swimlaneHead=0;swimlaneBody=0;fillColor=none;collapsible=0;dropTarget=0;points=[[0,0.5],[1,0.5]];portConstraint=eastwest;top=0;left=0;right=0;bottom=1;strokeWidth=3;fontSize=13;fontStyle=1" parent="OuPkgNERS_z0lnA8bcDj-165" vertex="1">
          <mxGeometry y="30" width="180" height="30" as="geometry" />
        </mxCell>
        <mxCell id="OuPkgNERS_z0lnA8bcDj-167" value="PK" style="shape=partialRectangle;connectable=0;fillColor=none;top=0;left=0;bottom=0;right=0;fontStyle=1;overflow=hidden;whiteSpace=wrap;html=1;strokeWidth=3;fontSize=13;" parent="OuPkgNERS_z0lnA8bcDj-166" vertex="1">
          <mxGeometry width="30" height="30" as="geometry">
            <mxRectangle width="30" height="30" as="alternateBounds" />
          </mxGeometry>
        </mxCell>
        <mxCell id="OuPkgNERS_z0lnA8bcDj-168" value="project_ID" style="shape=partialRectangle;connectable=0;fillColor=none;top=0;left=0;bottom=0;right=0;align=left;spacingLeft=6;fontStyle=5;overflow=hidden;whiteSpace=wrap;html=1;strokeWidth=3;fontSize=13;" parent="OuPkgNERS_z0lnA8bcDj-166" vertex="1">
          <mxGeometry x="30" width="150" height="30" as="geometry">
            <mxRectangle width="150" height="30" as="alternateBounds" />
          </mxGeometry>
        </mxCell>
        <mxCell id="OuPkgNERS_z0lnA8bcDj-169" value="" style="shape=tableRow;horizontal=0;startSize=0;swimlaneHead=0;swimlaneBody=0;fillColor=none;collapsible=0;dropTarget=0;points=[[0,0.5],[1,0.5]];portConstraint=eastwest;top=0;left=0;right=0;bottom=0;strokeWidth=3;fontSize=13;fontStyle=1" parent="OuPkgNERS_z0lnA8bcDj-165" vertex="1">
          <mxGeometry y="60" width="180" height="30" as="geometry" />
        </mxCell>
        <mxCell id="OuPkgNERS_z0lnA8bcDj-170" value="" style="shape=partialRectangle;connectable=0;fillColor=none;top=0;left=0;bottom=0;right=0;editable=1;overflow=hidden;whiteSpace=wrap;html=1;strokeWidth=3;fontSize=13;fontStyle=1" parent="OuPkgNERS_z0lnA8bcDj-169" vertex="1">
          <mxGeometry width="30" height="30" as="geometry">
            <mxRectangle width="30" height="30" as="alternateBounds" />
          </mxGeometry>
        </mxCell>
        <mxCell id="OuPkgNERS_z0lnA8bcDj-171" value="project_name" style="shape=partialRectangle;connectable=0;fillColor=none;top=0;left=0;bottom=0;right=0;align=left;spacingLeft=6;overflow=hidden;whiteSpace=wrap;html=1;strokeWidth=3;fontSize=13;fontStyle=1" parent="OuPkgNERS_z0lnA8bcDj-169" vertex="1">
          <mxGeometry x="30" width="150" height="30" as="geometry">
            <mxRectangle width="150" height="30" as="alternateBounds" />
          </mxGeometry>
        </mxCell>
        <mxCell id="OuPkgNERS_z0lnA8bcDj-172" value="" style="shape=tableRow;horizontal=0;startSize=0;swimlaneHead=0;swimlaneBody=0;fillColor=none;collapsible=0;dropTarget=0;points=[[0,0.5],[1,0.5]];portConstraint=eastwest;top=0;left=0;right=0;bottom=0;strokeWidth=3;fontSize=13;fontStyle=1" parent="OuPkgNERS_z0lnA8bcDj-165" vertex="1">
          <mxGeometry y="90" width="180" height="30" as="geometry" />
        </mxCell>
        <mxCell id="OuPkgNERS_z0lnA8bcDj-173" value="" style="shape=partialRectangle;connectable=0;fillColor=none;top=0;left=0;bottom=0;right=0;editable=1;overflow=hidden;whiteSpace=wrap;html=1;strokeWidth=3;fontSize=13;fontStyle=1" parent="OuPkgNERS_z0lnA8bcDj-172" vertex="1">
          <mxGeometry width="30" height="30" as="geometry">
            <mxRectangle width="30" height="30" as="alternateBounds" />
          </mxGeometry>
        </mxCell>
        <mxCell id="OuPkgNERS_z0lnA8bcDj-174" value="project_description" style="shape=partialRectangle;connectable=0;fillColor=none;top=0;left=0;bottom=0;right=0;align=left;spacingLeft=6;overflow=hidden;whiteSpace=wrap;html=1;strokeWidth=3;fontSize=13;fontStyle=1" parent="OuPkgNERS_z0lnA8bcDj-172" vertex="1">
          <mxGeometry x="30" width="150" height="30" as="geometry">
            <mxRectangle width="150" height="30" as="alternateBounds" />
          </mxGeometry>
        </mxCell>
        <mxCell id="OuPkgNERS_z0lnA8bcDj-175" value="" style="shape=tableRow;horizontal=0;startSize=0;swimlaneHead=0;swimlaneBody=0;fillColor=none;collapsible=0;dropTarget=0;points=[[0,0.5],[1,0.5]];portConstraint=eastwest;top=0;left=0;right=0;bottom=0;strokeWidth=3;fontSize=13;fontStyle=1" parent="OuPkgNERS_z0lnA8bcDj-165" vertex="1">
          <mxGeometry y="120" width="180" height="30" as="geometry" />
        </mxCell>
        <mxCell id="OuPkgNERS_z0lnA8bcDj-176" value="" style="shape=partialRectangle;connectable=0;fillColor=none;top=0;left=0;bottom=0;right=0;editable=1;overflow=hidden;whiteSpace=wrap;html=1;strokeWidth=3;fontSize=13;fontStyle=1" parent="OuPkgNERS_z0lnA8bcDj-175" vertex="1">
          <mxGeometry width="30" height="30" as="geometry">
            <mxRectangle width="30" height="30" as="alternateBounds" />
          </mxGeometry>
        </mxCell>
        <mxCell id="OuPkgNERS_z0lnA8bcDj-177" value="Start_date" style="shape=partialRectangle;connectable=0;fillColor=none;top=0;left=0;bottom=0;right=0;align=left;spacingLeft=6;overflow=hidden;whiteSpace=wrap;html=1;strokeWidth=3;fontSize=13;fontStyle=1" parent="OuPkgNERS_z0lnA8bcDj-175" vertex="1">
          <mxGeometry x="30" width="150" height="30" as="geometry">
            <mxRectangle width="150" height="30" as="alternateBounds" />
          </mxGeometry>
        </mxCell>
        <mxCell id="OuPkgNERS_z0lnA8bcDj-181" value="" style="shape=tableRow;horizontal=0;startSize=0;swimlaneHead=0;swimlaneBody=0;fillColor=none;collapsible=0;dropTarget=0;points=[[0,0.5],[1,0.5]];portConstraint=eastwest;top=0;left=0;right=0;bottom=0;strokeWidth=3;fontSize=13;fontStyle=1" parent="OuPkgNERS_z0lnA8bcDj-165" vertex="1">
          <mxGeometry y="150" width="180" height="30" as="geometry" />
        </mxCell>
        <mxCell id="OuPkgNERS_z0lnA8bcDj-182" value="" style="shape=partialRectangle;connectable=0;fillColor=none;top=0;left=0;bottom=0;right=0;editable=1;overflow=hidden;whiteSpace=wrap;html=1;strokeWidth=3;fontSize=13;fontStyle=1" parent="OuPkgNERS_z0lnA8bcDj-181" vertex="1">
          <mxGeometry width="30" height="30" as="geometry">
            <mxRectangle width="30" height="30" as="alternateBounds" />
          </mxGeometry>
        </mxCell>
        <mxCell id="OuPkgNERS_z0lnA8bcDj-183" value="End_date" style="shape=partialRectangle;connectable=0;fillColor=none;top=0;left=0;bottom=0;right=0;align=left;spacingLeft=6;overflow=hidden;whiteSpace=wrap;html=1;strokeWidth=3;fontSize=13;fontStyle=1" parent="OuPkgNERS_z0lnA8bcDj-181" vertex="1">
          <mxGeometry x="30" width="150" height="30" as="geometry">
            <mxRectangle width="150" height="30" as="alternateBounds" />
          </mxGeometry>
        </mxCell>
        <mxCell id="OuPkgNERS_z0lnA8bcDj-189" value="" style="shape=tableRow;horizontal=0;startSize=0;swimlaneHead=0;swimlaneBody=0;fillColor=none;collapsible=0;dropTarget=0;points=[[0,0.5],[1,0.5]];portConstraint=eastwest;top=0;left=0;right=0;bottom=0;strokeWidth=3;fontSize=13;fontStyle=1" parent="OuPkgNERS_z0lnA8bcDj-165" vertex="1">
          <mxGeometry y="180" width="180" height="30" as="geometry" />
        </mxCell>
        <mxCell id="OuPkgNERS_z0lnA8bcDj-190" value="FK" style="shape=partialRectangle;connectable=0;fillColor=none;top=0;left=0;bottom=0;right=0;editable=1;overflow=hidden;whiteSpace=wrap;html=1;strokeWidth=3;fontSize=13;fontStyle=1" parent="OuPkgNERS_z0lnA8bcDj-189" vertex="1">
          <mxGeometry width="30" height="30" as="geometry">
            <mxRectangle width="30" height="30" as="alternateBounds" />
          </mxGeometry>
        </mxCell>
        <mxCell id="OuPkgNERS_z0lnA8bcDj-191" value="Vacancy_ID" style="shape=partialRectangle;connectable=0;fillColor=none;top=0;left=0;bottom=0;right=0;align=left;spacingLeft=6;overflow=hidden;whiteSpace=wrap;html=1;strokeWidth=3;fontSize=13;fontStyle=1" parent="OuPkgNERS_z0lnA8bcDj-189" vertex="1">
          <mxGeometry x="30" width="150" height="30" as="geometry">
            <mxRectangle width="150" height="30" as="alternateBounds" />
          </mxGeometry>
        </mxCell>
        <mxCell id="OuPkgNERS_z0lnA8bcDj-188" style="edgeStyle=orthogonalEdgeStyle;rounded=0;orthogonalLoop=1;jettySize=auto;html=1;exitX=1;exitY=0.5;exitDx=0;exitDy=0;strokeWidth=3;fontSize=13;fontStyle=1;entryX=1;entryY=0.5;entryDx=0;entryDy=0;" parent="1" source="OuPkgNERS_z0lnA8bcDj-133" target="OuPkgNERS_z0lnA8bcDj-91" edge="1">
          <mxGeometry relative="1" as="geometry">
            <Array as="points">
              <mxPoint x="3130" y="585" />
              <mxPoint x="3130" y="-65" />
            </Array>
            <mxPoint x="2380" y="590" as="sourcePoint" />
            <mxPoint x="3090" y="-60" as="targetPoint" />
          </mxGeometry>
        </mxCell>
        <mxCell id="OuPkgNERS_z0lnA8bcDj-192" style="edgeStyle=orthogonalEdgeStyle;rounded=0;orthogonalLoop=1;jettySize=auto;html=1;exitX=1;exitY=0.5;exitDx=0;exitDy=0;entryX=0;entryY=0.5;entryDx=0;entryDy=0;strokeWidth=3;fontSize=13;fontStyle=1" parent="1" source="OuPkgNERS_z0lnA8bcDj-189" target="OuPkgNERS_z0lnA8bcDj-130" edge="1">
          <mxGeometry relative="1" as="geometry" />
        </mxCell>
        <mxCell id="OuPkgNERS_z0lnA8bcDj-205" value="Handled" style="shape=table;startSize=30;container=1;collapsible=1;childLayout=tableLayout;fixedRows=1;rowLines=0;fontStyle=1;align=center;resizeLast=1;html=1;strokeWidth=3;fontSize=13;" parent="1" vertex="1">
          <mxGeometry x="3080" y="-400" width="180" height="90" as="geometry" />
        </mxCell>
        <mxCell id="OuPkgNERS_z0lnA8bcDj-209" value="" style="shape=tableRow;horizontal=0;startSize=0;swimlaneHead=0;swimlaneBody=0;fillColor=none;collapsible=0;dropTarget=0;points=[[0,0.5],[1,0.5]];portConstraint=eastwest;top=0;left=0;right=0;bottom=0;strokeWidth=3;fontSize=13;fontStyle=1" parent="OuPkgNERS_z0lnA8bcDj-205" vertex="1">
          <mxGeometry y="30" width="180" height="30" as="geometry" />
        </mxCell>
        <mxCell id="OuPkgNERS_z0lnA8bcDj-210" value="FK" style="shape=partialRectangle;connectable=0;fillColor=none;top=0;left=0;bottom=0;right=0;editable=1;overflow=hidden;whiteSpace=wrap;html=1;strokeWidth=3;fontSize=13;fontStyle=1" parent="OuPkgNERS_z0lnA8bcDj-209" vertex="1">
          <mxGeometry width="30" height="30" as="geometry">
            <mxRectangle width="30" height="30" as="alternateBounds" />
          </mxGeometry>
        </mxCell>
        <mxCell id="OuPkgNERS_z0lnA8bcDj-211" value="Interview_ID" style="shape=partialRectangle;connectable=0;fillColor=none;top=0;left=0;bottom=0;right=0;align=left;spacingLeft=6;overflow=hidden;whiteSpace=wrap;html=1;strokeWidth=3;fontSize=13;fontStyle=1" parent="OuPkgNERS_z0lnA8bcDj-209" vertex="1">
          <mxGeometry x="30" width="150" height="30" as="geometry">
            <mxRectangle width="150" height="30" as="alternateBounds" />
          </mxGeometry>
        </mxCell>
        <mxCell id="OuPkgNERS_z0lnA8bcDj-212" value="" style="shape=tableRow;horizontal=0;startSize=0;swimlaneHead=0;swimlaneBody=0;fillColor=none;collapsible=0;dropTarget=0;points=[[0,0.5],[1,0.5]];portConstraint=eastwest;top=0;left=0;right=0;bottom=0;strokeWidth=3;fontSize=13;fontStyle=1" parent="OuPkgNERS_z0lnA8bcDj-205" vertex="1">
          <mxGeometry y="60" width="180" height="30" as="geometry" />
        </mxCell>
        <mxCell id="OuPkgNERS_z0lnA8bcDj-213" value="FK" style="shape=partialRectangle;connectable=0;fillColor=none;top=0;left=0;bottom=0;right=0;editable=1;overflow=hidden;whiteSpace=wrap;html=1;strokeWidth=3;fontSize=13;fontStyle=1" parent="OuPkgNERS_z0lnA8bcDj-212" vertex="1">
          <mxGeometry width="30" height="30" as="geometry">
            <mxRectangle width="30" height="30" as="alternateBounds" />
          </mxGeometry>
        </mxCell>
        <mxCell id="OuPkgNERS_z0lnA8bcDj-214" value="Interviewer_ID" style="shape=partialRectangle;connectable=0;fillColor=none;top=0;left=0;bottom=0;right=0;align=left;spacingLeft=6;overflow=hidden;whiteSpace=wrap;html=1;strokeWidth=3;fontSize=13;fontStyle=1" parent="OuPkgNERS_z0lnA8bcDj-212" vertex="1">
          <mxGeometry x="30" width="150" height="30" as="geometry">
            <mxRectangle width="150" height="30" as="alternateBounds" />
          </mxGeometry>
        </mxCell>
        <mxCell id="OuPkgNERS_z0lnA8bcDj-215" style="edgeStyle=orthogonalEdgeStyle;rounded=0;orthogonalLoop=1;jettySize=auto;html=1;entryX=1;entryY=0.5;entryDx=0;entryDy=0;strokeWidth=3;fontSize=13;fontStyle=1;exitX=1;exitY=0.5;exitDx=0;exitDy=0;" parent="1" source="OuPkgNERS_z0lnA8bcDj-91" target="OuPkgNERS_z0lnA8bcDj-209" edge="1">
          <mxGeometry relative="1" as="geometry" />
        </mxCell>
        <mxCell id="OuPkgNERS_z0lnA8bcDj-216" style="edgeStyle=orthogonalEdgeStyle;rounded=0;orthogonalLoop=1;jettySize=auto;html=1;entryX=0;entryY=0.5;entryDx=0;entryDy=0;strokeWidth=3;fontSize=13;fontStyle=1" parent="1" source="OuPkgNERS_z0lnA8bcDj-117" target="OuPkgNERS_z0lnA8bcDj-212" edge="1">
          <mxGeometry relative="1" as="geometry" />
        </mxCell>
        <mxCell id="OuPkgNERS_z0lnA8bcDj-217" value="applied for" style="rhombus;whiteSpace=wrap;html=1;strokeWidth=3;fontSize=14;fontStyle=1" parent="1" vertex="1">
          <mxGeometry x="710" y="-35" width="80" height="80" as="geometry" />
        </mxCell>
        <mxCell id="OuPkgNERS_z0lnA8bcDj-218" style="edgeStyle=orthogonalEdgeStyle;rounded=0;orthogonalLoop=1;jettySize=auto;html=1;entryX=0.167;entryY=0;entryDx=0;entryDy=0;entryPerimeter=0;endArrow=none;endFill=0;exitX=1;exitY=0.5;exitDx=0;exitDy=0;strokeWidth=3;fontSize=14;fontStyle=1" parent="1" source="OuPkgNERS_z0lnA8bcDj-217" target="OuPkgNERS_z0lnA8bcDj-11" edge="1">
          <mxGeometry relative="1" as="geometry" />
        </mxCell>
        <mxCell id="OuPkgNERS_z0lnA8bcDj-222" value="M" style="text;html=1;align=center;verticalAlign=middle;resizable=0;points=[];autosize=1;strokeColor=none;fillColor=none;strokeWidth=3;fontSize=14;fontStyle=1" parent="1" vertex="1">
          <mxGeometry x="1127.5" y="508" width="40" height="30" as="geometry" />
        </mxCell>
        <mxCell id="OuPkgNERS_z0lnA8bcDj-223" value="N" style="text;html=1;align=center;verticalAlign=middle;resizable=0;points=[];autosize=1;strokeColor=none;fillColor=none;strokeWidth=3;fontSize=14;fontStyle=1" parent="1" vertex="1">
          <mxGeometry x="360" y="3" width="30" height="30" as="geometry" />
        </mxCell>
        <mxCell id="-2zlEx04WW2Jvss6zfBr-33" style="edgeStyle=orthogonalEdgeStyle;rounded=0;orthogonalLoop=1;jettySize=auto;html=1;entryX=0;entryY=0.5;entryDx=0;entryDy=0;strokeWidth=3;" edge="1" parent="1" source="OuPkgNERS_z0lnA8bcDj-224" target="OuPkgNERS_z0lnA8bcDj-104">
          <mxGeometry relative="1" as="geometry">
            <Array as="points">
              <mxPoint x="2530" y="317" />
              <mxPoint x="2530" y="255" />
            </Array>
          </mxGeometry>
        </mxCell>
        <mxCell id="OuPkgNERS_z0lnA8bcDj-224" value="Applied_For" style="shape=table;startSize=30;container=1;collapsible=1;childLayout=tableLayout;fixedRows=1;rowLines=0;fontStyle=1;align=center;resizeLast=1;html=1;strokeWidth=3;fontSize=13;" parent="1" vertex="1">
          <mxGeometry x="2325" y="272" width="180" height="90" as="geometry" />
        </mxCell>
        <mxCell id="OuPkgNERS_z0lnA8bcDj-225" value="" style="shape=tableRow;horizontal=0;startSize=0;swimlaneHead=0;swimlaneBody=0;fillColor=none;collapsible=0;dropTarget=0;points=[[0,0.5],[1,0.5]];portConstraint=eastwest;top=0;left=0;right=0;bottom=0;strokeWidth=3;fontSize=13;fontStyle=1" parent="OuPkgNERS_z0lnA8bcDj-224" vertex="1">
          <mxGeometry y="30" width="180" height="30" as="geometry" />
        </mxCell>
        <mxCell id="OuPkgNERS_z0lnA8bcDj-226" value="FK" style="shape=partialRectangle;connectable=0;fillColor=none;top=0;left=0;bottom=0;right=0;editable=1;overflow=hidden;whiteSpace=wrap;html=1;strokeWidth=3;fontSize=13;fontStyle=1" parent="OuPkgNERS_z0lnA8bcDj-225" vertex="1">
          <mxGeometry width="30" height="30" as="geometry">
            <mxRectangle width="30" height="30" as="alternateBounds" />
          </mxGeometry>
        </mxCell>
        <mxCell id="OuPkgNERS_z0lnA8bcDj-227" value="Candidate_ID" style="shape=partialRectangle;connectable=0;fillColor=none;top=0;left=0;bottom=0;right=0;align=left;spacingLeft=6;overflow=hidden;whiteSpace=wrap;html=1;strokeWidth=3;fontSize=13;fontStyle=1" parent="OuPkgNERS_z0lnA8bcDj-225" vertex="1">
          <mxGeometry x="30" width="150" height="30" as="geometry">
            <mxRectangle width="150" height="30" as="alternateBounds" />
          </mxGeometry>
        </mxCell>
        <mxCell id="OuPkgNERS_z0lnA8bcDj-228" value="" style="shape=tableRow;horizontal=0;startSize=0;swimlaneHead=0;swimlaneBody=0;fillColor=none;collapsible=0;dropTarget=0;points=[[0,0.5],[1,0.5]];portConstraint=eastwest;top=0;left=0;right=0;bottom=0;strokeWidth=3;fontSize=13;fontStyle=1" parent="OuPkgNERS_z0lnA8bcDj-224" vertex="1">
          <mxGeometry y="60" width="180" height="30" as="geometry" />
        </mxCell>
        <mxCell id="OuPkgNERS_z0lnA8bcDj-229" value="FK" style="shape=partialRectangle;connectable=0;fillColor=none;top=0;left=0;bottom=0;right=0;editable=1;overflow=hidden;whiteSpace=wrap;html=1;strokeWidth=3;fontSize=13;fontStyle=1" parent="OuPkgNERS_z0lnA8bcDj-228" vertex="1">
          <mxGeometry width="30" height="30" as="geometry">
            <mxRectangle width="30" height="30" as="alternateBounds" />
          </mxGeometry>
        </mxCell>
        <mxCell id="OuPkgNERS_z0lnA8bcDj-230" value="Vacancy_ID" style="shape=partialRectangle;connectable=0;fillColor=none;top=0;left=0;bottom=0;right=0;align=left;spacingLeft=6;overflow=hidden;whiteSpace=wrap;html=1;strokeWidth=3;fontSize=13;fontStyle=1" parent="OuPkgNERS_z0lnA8bcDj-228" vertex="1">
          <mxGeometry x="30" width="150" height="30" as="geometry">
            <mxRectangle width="150" height="30" as="alternateBounds" />
          </mxGeometry>
        </mxCell>
        <mxCell id="OuPkgNERS_z0lnA8bcDj-239" style="edgeStyle=orthogonalEdgeStyle;rounded=0;orthogonalLoop=1;jettySize=auto;html=1;strokeWidth=3;fontSize=13;fontStyle=1;entryX=1;entryY=0.5;entryDx=0;entryDy=0;" parent="1" source="OuPkgNERS_z0lnA8bcDj-228" target="OuPkgNERS_z0lnA8bcDj-130" edge="1">
          <mxGeometry relative="1" as="geometry">
            <Array as="points">
              <mxPoint x="2530" y="347" />
              <mxPoint x="2530" y="545" />
            </Array>
            <mxPoint x="2380" y="540" as="targetPoint" />
          </mxGeometry>
        </mxCell>
        <mxCell id="OuPkgNERS_z0lnA8bcDj-243" style="edgeStyle=orthogonalEdgeStyle;rounded=0;orthogonalLoop=1;jettySize=auto;html=1;entryX=1;entryY=0.5;entryDx=0;entryDy=0;strokeWidth=3;fontSize=13;fontStyle=1;exitX=1;exitY=0.5;exitDx=0;exitDy=0;" parent="1" source="OuPkgNERS_z0lnA8bcDj-100" target="OuPkgNERS_z0lnA8bcDj-130" edge="1">
          <mxGeometry relative="1" as="geometry">
            <Array as="points">
              <mxPoint x="3090" y="25" />
              <mxPoint x="3090" y="545" />
            </Array>
          </mxGeometry>
        </mxCell>
        <mxCell id="-2zlEx04WW2Jvss6zfBr-4" style="edgeStyle=orthogonalEdgeStyle;rounded=0;orthogonalLoop=1;jettySize=auto;html=1;entryX=1;entryY=0.5;entryDx=0;entryDy=0;strokeWidth=3;fontSize=13;fontStyle=1;exitX=1;exitY=0.5;exitDx=0;exitDy=0;" edge="1" parent="1" source="-2zlEx04WW2Jvss6zfBr-1" target="OuPkgNERS_z0lnA8bcDj-104">
          <mxGeometry relative="1" as="geometry" />
        </mxCell>
        <mxCell id="-2zlEx04WW2Jvss6zfBr-6" style="edgeStyle=orthogonalEdgeStyle;rounded=0;orthogonalLoop=1;jettySize=auto;html=1;entryX=1;entryY=0.25;entryDx=0;entryDy=0;endArrow=none;endFill=0;strokeWidth=3;fontSize=14;fontStyle=1" edge="1" parent="1" source="-2zlEx04WW2Jvss6zfBr-5" target="OuPkgNERS_z0lnA8bcDj-11">
          <mxGeometry relative="1" as="geometry" />
        </mxCell>
        <mxCell id="-2zlEx04WW2Jvss6zfBr-5" value="NIC" style="ellipse;whiteSpace=wrap;html=1;strokeWidth=3;fontSize=14;fontStyle=1" vertex="1" parent="1">
          <mxGeometry x="1347.5" y="488" width="120" height="80" as="geometry" />
        </mxCell>
        <mxCell id="-2zlEx04WW2Jvss6zfBr-13" value="1" style="text;html=1;align=center;verticalAlign=middle;resizable=0;points=[];autosize=1;strokeColor=none;fillColor=none;strokeWidth=3;fontSize=14;fontStyle=1" vertex="1" parent="1">
          <mxGeometry x="190" y="532" width="30" height="30" as="geometry" />
        </mxCell>
        <mxCell id="-2zlEx04WW2Jvss6zfBr-20" style="edgeStyle=orthogonalEdgeStyle;rounded=0;orthogonalLoop=1;jettySize=auto;html=1;entryX=0;entryY=0.5;entryDx=0;entryDy=0;fontSize=13;strokeWidth=3;" edge="1" parent="1" source="OuPkgNERS_z0lnA8bcDj-156" target="OuPkgNERS_z0lnA8bcDj-91">
          <mxGeometry relative="1" as="geometry">
            <mxPoint x="2960.000000000001" y="-50" as="targetPoint" />
          </mxGeometry>
        </mxCell>
        <mxCell id="-2zlEx04WW2Jvss6zfBr-21" value="has" style="rhombus;whiteSpace=wrap;html=1;strokeWidth=3;fontSize=14;fontStyle=1" vertex="1" parent="1">
          <mxGeometry x="-130" y="45" width="80" height="80" as="geometry" />
        </mxCell>
        <mxCell id="-2zlEx04WW2Jvss6zfBr-23" value="" style="endArrow=none;html=1;rounded=0;entryX=0.25;entryY=1;entryDx=0;entryDy=0;exitX=0.5;exitY=0;exitDx=0;exitDy=0;strokeWidth=3;" edge="1" parent="1" source="-2zlEx04WW2Jvss6zfBr-21" target="OuPkgNERS_z0lnA8bcDj-22">
          <mxGeometry width="50" height="50" relative="1" as="geometry">
            <mxPoint x="250" y="-230" as="sourcePoint" />
            <mxPoint x="300" y="-280" as="targetPoint" />
          </mxGeometry>
        </mxCell>
        <mxCell id="-2zlEx04WW2Jvss6zfBr-24" value="" style="endArrow=none;html=1;rounded=0;entryX=0.5;entryY=1;entryDx=0;entryDy=0;exitX=0.25;exitY=0;exitDx=0;exitDy=0;strokeWidth=3;" edge="1" parent="1" source="OuPkgNERS_z0lnA8bcDj-1" target="-2zlEx04WW2Jvss6zfBr-21">
          <mxGeometry width="50" height="50" relative="1" as="geometry">
            <mxPoint x="250" y="380" as="sourcePoint" />
            <mxPoint x="300" y="330" as="targetPoint" />
          </mxGeometry>
        </mxCell>
        <mxCell id="-2zlEx04WW2Jvss6zfBr-25" value="M" style="text;html=1;align=center;verticalAlign=middle;resizable=0;points=[];autosize=1;strokeColor=none;fillColor=none;fontStyle=1;fontSize=13;" vertex="1" parent="1">
          <mxGeometry x="215" y="458" width="30" height="30" as="geometry" />
        </mxCell>
        <mxCell id="-2zlEx04WW2Jvss6zfBr-26" value="&lt;b&gt;&lt;font style=&quot;font-size: 13px;&quot;&gt;1&lt;/font&gt;&lt;/b&gt;" style="text;html=1;align=center;verticalAlign=middle;resizable=0;points=[];autosize=1;strokeColor=none;fillColor=none;" vertex="1" parent="1">
          <mxGeometry x="245" y="-522" width="30" height="30" as="geometry" />
        </mxCell>
        <mxCell id="-2zlEx04WW2Jvss6zfBr-27" value="project_Id" style="ellipse;whiteSpace=wrap;html=1;strokeWidth=3;fontSize=14;fontStyle=1" vertex="1" parent="1">
          <mxGeometry x="387.5" y="377" width="120" height="80" as="geometry" />
        </mxCell>
        <mxCell id="-2zlEx04WW2Jvss6zfBr-29" value="" style="endArrow=none;html=1;rounded=0;entryX=0;entryY=1;entryDx=0;entryDy=0;exitX=0.75;exitY=0;exitDx=0;exitDy=0;fontSize=13;strokeWidth=3;" edge="1" parent="1" source="OuPkgNERS_z0lnA8bcDj-1" target="-2zlEx04WW2Jvss6zfBr-27">
          <mxGeometry width="50" height="50" relative="1" as="geometry">
            <mxPoint x="160" y="620" as="sourcePoint" />
            <mxPoint x="210" y="570" as="targetPoint" />
          </mxGeometry>
        </mxCell>
        <mxCell id="-2zlEx04WW2Jvss6zfBr-35" style="edgeStyle=orthogonalEdgeStyle;rounded=0;orthogonalLoop=1;jettySize=auto;html=1;entryX=1;entryY=0.5;entryDx=0;entryDy=0;strokeWidth=3;" edge="1" parent="1" source="-2zlEx04WW2Jvss6zfBr-30" target="OuPkgNERS_z0lnA8bcDj-166">
          <mxGeometry relative="1" as="geometry">
            <Array as="points">
              <mxPoint x="2040" y="85" />
              <mxPoint x="2040" y="545" />
            </Array>
          </mxGeometry>
        </mxCell>
        <mxCell id="-2zlEx04WW2Jvss6zfBr-39" style="edgeStyle=orthogonalEdgeStyle;rounded=0;orthogonalLoop=1;jettySize=auto;html=1;exitX=0.5;exitY=0;exitDx=0;exitDy=0;entryX=0.75;entryY=1;entryDx=0;entryDy=0;strokeWidth=3;endArrow=none;endFill=0;" edge="1" parent="1" source="-2zlEx04WW2Jvss6zfBr-38" target="OuPkgNERS_z0lnA8bcDj-87">
          <mxGeometry relative="1" as="geometry" />
        </mxCell>
        <mxCell id="-2zlEx04WW2Jvss6zfBr-40" style="edgeStyle=orthogonalEdgeStyle;rounded=0;orthogonalLoop=1;jettySize=auto;html=1;entryX=0.25;entryY=0;entryDx=0;entryDy=0;strokeWidth=3;endArrow=none;endFill=0;" edge="1" parent="1" source="-2zlEx04WW2Jvss6zfBr-38" target="OuPkgNERS_z0lnA8bcDj-7">
          <mxGeometry relative="1" as="geometry" />
        </mxCell>
        <mxCell id="-2zlEx04WW2Jvss6zfBr-38" value="gives" style="rhombus;whiteSpace=wrap;html=1;strokeWidth=3;fontSize=14;fontStyle=1" vertex="1" parent="1">
          <mxGeometry x="-195" y="860" width="80" height="80" as="geometry" />
        </mxCell>
        <mxCell id="-2zlEx04WW2Jvss6zfBr-41" value="m" style="text;html=1;align=center;verticalAlign=middle;resizable=0;points=[];autosize=1;strokeColor=none;fillColor=none;fontStyle=1;fontSize=14;" vertex="1" parent="1">
          <mxGeometry x="-280" y="568" width="40" height="30" as="geometry" />
        </mxCell>
        <mxCell id="-2zlEx04WW2Jvss6zfBr-42" value="1" style="text;html=1;align=center;verticalAlign=middle;resizable=0;points=[];autosize=1;strokeColor=none;fillColor=none;fontStyle=1;fontSize=14;" vertex="1" parent="1">
          <mxGeometry x="195" y="918" width="30" height="30" as="geometry" />
        </mxCell>
        <mxCell id="-2zlEx04WW2Jvss6zfBr-46" style="edgeStyle=orthogonalEdgeStyle;rounded=0;orthogonalLoop=1;jettySize=auto;html=1;entryX=0;entryY=0.5;entryDx=0;entryDy=0;fontSize=13;strokeWidth=3;" edge="1" parent="1" source="-2zlEx04WW2Jvss6zfBr-43" target="OuPkgNERS_z0lnA8bcDj-117">
          <mxGeometry relative="1" as="geometry">
            <Array as="points">
              <mxPoint x="1890" y="55" />
              <mxPoint x="1890" y="-325" />
            </Array>
          </mxGeometry>
        </mxCell>
      </root>
    </mxGraphModel>
  </diagram>
</mxfile>
